<svg viewBox="0 0 41 40" fill="none" xmlns="http://www.w3.org/2000/svg">
<path d="M21.8095 3C31.3036 3 39 10.6112 39 20C39 29.3888 31.3036 37 21.8095 37C12.3155 37 4.61905 29.3888 4.61905 20V13.7368M4.61905 13.7368L8.2381 18.2105M4.61905 13.7368L1 18.2105" stroke="#31313B" stroke-width="2"/>
<path d="M14.3296 16.7375L15.7171 15.475L16.3171 14.9375C16.8088 14.5042 17.1838 14.1583 17.4421 13.9C17.7088 13.6417 17.9254 13.3792 18.0921 13.1125C18.2671 12.8458 18.3546 12.5833 18.3546 12.325C18.3546 11.55 17.9171 11.1625 17.0421 11.1625C16.6171 11.1625 16.1963 11.2375 15.7796 11.3875C15.3713 11.5375 14.9921 11.7458 14.6421 12.0125V9.90001C15.0171 9.64168 15.4546 9.44168 15.9546 9.30001C16.4546 9.15001 16.9879 9.07501 17.5546 9.07501C18.2046 9.07501 18.7671 9.19585 19.2421 9.43751C19.7171 9.67918 20.0796 10.0125 20.3296 10.4375C20.5796 10.8625 20.7046 11.3417 20.7046 11.875C20.7046 12.5167 20.5546 13.0792 20.2546 13.5625C19.9629 14.0375 19.4879 14.575 18.8296 15.175L17.7171 16.1875H20.9796V18H14.3296V16.7375Z" fill="#31313B"/>
<path d="M25.3675 16.2H21.355V14.825L25.4925 9.26251H27.68V14.45H28.9175V16.2H27.68V18H25.3675V16.2ZM25.705 14.45V11.95L23.8675 14.45H25.705Z" fill="#31313B"/>
<path d="M17.1582 21.075H19.4082L15.8457 30H13.5957L17.1582 21.075Z" fill="#31313B"/>
<path d="M25.2486 23.075H21.3486V21.2625H27.6486V22.7375L24.3361 30H22.0861L25.2486 23.075Z" fill="#31313B"/>
</svg>
