<svg viewBox="0 0 18 18" fill="none" xmlns="http://www.w3.org/2000/svg">
<path d="M1 6.91759L0.476326 6.06567L1 7.91759V6.91759ZM9 2L9.52367 1.14808L9 0.826179L8.47633 1.14808L9 2ZM17 6.91759V7.91759L17.5237 6.06567L17 6.91759ZM1.52367 7.76951L9.52367 2.85192L8.47633 1.14808L0.476326 6.06567L1.52367 7.76951ZM8.47633 2.85192L16.4763 7.76951L17.5237 6.06567L9.52367 1.14808L8.47633 2.85192ZM2.48837 5.91759H1V7.91759H2.48837V5.91759ZM17 5.91759H15.8837V7.91759H17V5.91759ZM3.1499 5.91759H2.48837V7.91759H3.1499V5.91759ZM2.1499 6.91759V16H4.1499V6.91759H2.1499ZM15.8837 5.91759H14.8182V7.91759H15.8837V5.91759ZM15.8182 16V6.91759H13.8182V16H15.8182ZM6.09091 5.91759H3.1499V7.91759H6.09091V5.91759ZM14.8182 5.91759H11.0202V7.91759H14.8182V5.91759ZM11.0202 5.91759H7.22222V7.91759H11.0202V5.91759ZM7.22222 5.91759H6.09091V7.91759H7.22222V5.91759ZM6.22222 6.91759V16H8.22222V6.91759H6.22222ZM1 17H17V15H1V17ZM10.0202 6.91759V16H12.0202V6.91759H10.0202Z" fill="#31313B"/>
</svg>
