<svg viewBox="0 0 56 56" fill="none" xmlns="http://www.w3.org/2000/svg">
<path d="M38 5H45M38 5V10M38 5L21.5 10M45 5V10M45 5L51 10M45 51H38M45 51H51L45 42M45 51V44M38 51V42M38 51H32M38 51L45 44M45 42V44M45 42V30M38 42L34.6667 47M38 42V37M32 51H5V50C5 48.3431 6.34315 47 8 47H34.6667M32 51L34.6667 47M38 14V10M38 14H15M38 14H45M38 14V23M38 10H21.5M38 10H45M45 10H51M45 10V14M51 10V14H45M45 14V16M21.5 10H8C6.34315 10 5 11.3431 5 13V14H12M12 14V18H13.5M12 14H15M15 14V18H13.5M13.5 18V22.5M13.5 22.5H12V25.5M13.5 22.5H15V25.5M12 25.5L6 30M12 25.5H13.5M15 25.5L21 30M15 25.5H13.5M6 30V33H13.5M6 30H13.5M21 30V33H13.5M21 30H13.5M13.5 30V33M13.5 30V25.5M45 44L38 37M38 37L45 30M38 37V23M45 30L38 23M45 30V16M38 23L45 16" stroke="#31313B"/>
</svg>
