<svg viewBox="0 0 56 56" fill="none" xmlns="http://www.w3.org/2000/svg">
<path d="M22.0703 19.5C22.5349 19.2698 23.0135 19.0638 23.5046 18.8835C24.3676 18.5668 25 17.7797 25 16.8605V8H32V16.8604C32 17.7796 32.6327 18.5668 33.4957 18.8835C37.649 20.4077 40.9113 23.7779 42.2884 28" stroke="#31313B"/>
<path d="M17 33L9.85494 45.5039C9.47399 46.1705 9.95536 47 10.7232 47H15M16 17V29L7.41975 44.0154C5.89596 46.6821 7.82143 50 10.8927 50H19H27.1073C30.1786 50 32.104 46.6821 30.5803 44.0154L22 29V17H16Z" stroke="#31313B"/>
<path d="M32 31V46V47C32 48.6569 33.3431 50 35 50H45.0001C46.657 50 48.0001 48.6569 48.0001 47V32L50.293 29.7071C50.923 29.0771 50.4768 28 49.5859 28H35C33.3431 28 32 29.3431 32 31Z" stroke="#31313B"/>
<path d="M44 33.5V46H41" stroke="#31313B"/>
<path d="M35 33.5H38" stroke="#31313B"/>
<path d="M35 38H37" stroke="#31313B"/>
<path d="M35 42.5H38" stroke="#31313B"/>
<circle cx="46" cy="21" r="3" stroke="#31313B"/>
<circle cx="40" cy="13" r="2" stroke="#31313B"/>
<circle cx="14" cy="10" r="2" stroke="#31313B"/>
<rect x="15" y="15" width="8" height="2" stroke="#31313B"/>
<rect x="24" y="6" width="9" height="2" stroke="#31313B"/>
</svg>
