<svg viewBox="0 0 24 24" fill="none" xmlns="http://www.w3.org/2000/svg">
<rect x="1" y="3" width="22" height="18" stroke="#31313B" stroke-width="2"/>
<path d="M5.95779 9H7.65779V16H5.65779V11.09L4.44779 11.38L3.98779 9.71L5.95779 9Z" fill="#31313B"/>
<path d="M8.85537 16V14.54L11.1354 12.07C11.1754 12.0233 11.232 11.96 11.3054 11.88C11.3854 11.8 11.4387 11.7433 11.4654 11.71C11.4987 11.6767 11.5387 11.6333 11.5854 11.58C11.6387 11.52 11.672 11.4733 11.6854 11.44C11.7054 11.4 11.722 11.36 11.7354 11.32C11.7554 11.2733 11.7654 11.2267 11.7654 11.18C11.7654 11.0667 11.7254 10.9733 11.6454 10.9C11.5654 10.82 11.4487 10.78 11.2954 10.78C10.922 10.78 10.6454 11.0167 10.4654 11.49L8.70537 10.53C8.9387 9.97666 9.28204 9.55666 9.73537 9.27C10.1954 8.98333 10.7054 8.84 11.2654 8.84C11.952 8.84 12.5387 9.03666 13.0254 9.43C13.5187 9.81666 13.7654 10.3533 13.7654 11.04C13.7654 11.46 13.672 11.8267 13.4854 12.14C13.3054 12.4533 13.0187 12.83 12.6254 13.27L11.9154 14.06H13.9154V16H8.85537Z" fill="#31313B"/>
<path d="M18.3232 11.86C18.7765 11.9933 19.1365 12.2267 19.4032 12.56C19.6765 12.8867 19.8132 13.3 19.8132 13.8C19.8132 14.5733 19.5665 15.16 19.0732 15.56C18.5799 15.96 17.9599 16.16 17.2132 16.16C16.5999 16.16 16.0632 16.02 15.6032 15.74C15.1432 15.46 14.8132 15.0467 14.6132 14.5L16.3732 13.49C16.5132 13.9767 16.7932 14.22 17.2132 14.22C17.3932 14.22 17.5365 14.1733 17.6432 14.08C17.7565 13.9867 17.8132 13.86 17.8132 13.7C17.8132 13.3667 17.6132 13.2 17.2132 13.2H16.7832L16.0032 12.04L16.9432 10.94H14.8332V9H19.4332V10.54L18.3232 11.86Z" fill="#31313B"/>
</svg>
