<svg viewBox="0 0 56 56" fill="none" xmlns="http://www.w3.org/2000/svg">
<rect x="2.92725" y="16.0656" width="12" height="12" transform="rotate(-15 2.92725 16.0656)" stroke="black"/>
<path d="M8.27473 16.7033L5.37695 17.4798L6.67105 22.3094" stroke="black"/>
<rect x="17.416" y="12.1833" width="12" height="12" transform="rotate(-15 17.416 12.1833)" stroke="black"/>
<path d="M22.7635 12.821L19.8657 13.5975L21.1598 18.4271" stroke="black"/>
<rect x="31.9048" y="8.30103" width="12" height="12" transform="rotate(-15 31.9048 8.30103)" stroke="black"/>
<path d="M37.2523 8.93875L34.3545 9.71521L35.6486 14.5448" stroke="black"/>
<rect x="6.80957" y="30.5545" width="20" height="12" transform="rotate(-15 6.80957 30.5545)" stroke="black"/>
<path d="M12.1566 31.1922L9.25879 31.9687L10.5529 36.7983" stroke="black"/>
<rect x="10.6919" y="45.0434" width="7" height="7" transform="rotate(-15 10.6919 45.0434)" stroke="black"/>
<path d="M16.0389 45.6811L13.1411 46.4576L13.9176 49.3554" stroke="black"/>
<rect x="20.3511" y="42.4552" width="10" height="7" transform="rotate(-15 20.3511 42.4552)" stroke="black"/>
<path d="M25.6986 43.0929L22.8008 43.8694L23.5772 46.7672" stroke="black"/>
<rect x="29.0259" y="24.6016" width="8" height="22" transform="rotate(-15 29.0259 24.6016)" stroke="black"/>
<path d="M34.3729 25.2394L31.4751 26.0158L32.7692 30.8455" stroke="black"/>
<rect x="39.6509" y="21.7546" width="8" height="22" transform="rotate(-15 39.6509 21.7546)" stroke="black"/>
<path d="M44.9984 22.3924L42.1006 23.1688L43.3947 27.9985" stroke="black"/>
</svg>
