<svg viewBox="0 0 42 42" fill="none" xmlns="http://www.w3.org/2000/svg">
<path d="M36 19C36 14.928 34.5684 11.1905 32.181 8.26316M36 19C36 20.5578 35.7905 22.0667 35.398 23.5M36 19H19H10.5M19 36C9.61116 36 2 28.3888 2 19M19 36V11.8421M19 36C16.1667 35.4035 10.5 31.1684 10.5 19M19 36C20.5578 36 22.0667 35.7905 23.5 35.398M2 19C2 9.61116 9.61116 2 19 2M2 19H10.5M19 2C24.3169 2 29.0637 4.44086 32.181 8.26316M19 2V11.8421M19 2C16.1667 2.59649 10.5 6.83158 10.5 19M32.181 8.26316C30.4715 9.45614 25.4421 11.8421 19 11.8421M19 11.8421C12.5579 11.8421 7.52847 9.45614 5.81902 8.26316M5.81923 29.7368C7.52868 28.5439 12.5581 26.1579 19.0002 26.1579C20.4075 26.1579 21.7474 26.2718 23 26.4622M19.4474 2C22.2807 2.59649 27.9474 6.83158 27.9474 19C27.9474 20.2487 27.8877 21.4138 27.7775 22.5" stroke="#31313B" stroke-width="2"/>
<circle cx="30.7778" cy="30.7778" r="8.77778" stroke="#31313B" stroke-width="2"/>
<path d="M26 31C26 28.2386 28.2386 26 31 26" stroke="#31313B" stroke-width="2"/>
<path d="M37 37L41 41" stroke="#31313B" stroke-width="2"/>
</svg>
