<svg viewBox="0 0 56 56" fill="none" xmlns="http://www.w3.org/2000/svg">
<path d="M20.1304 11H12.7391L11 15.3255H13.6087L11.8696 19.5186H14.4783L12.7391 27L21 15.3255H17.9565L20.1304 11Z" stroke="#31313B"/>
<path d="M15.5 33H26V5H5V33H15.5ZM15.5 33V47C15.5 49.2091 17.2909 51 19.5 51H49C50.1046 51 51 50.1046 51 49V49C51 47.8954 50.1046 47 49 47H34C32.8954 47 32 46.1046 32 45V45C32 43.8954 32.8954 43 34 43H39C40.1046 43 41 42.1046 41 41V32M41 32H39V28M41 32H43V27C43 25.8954 42.1046 25 41 25V25C39.8954 25 39 25.8954 39 27V28M39 28V28C35.134 28 32 24.866 32 21V15H35M43 28V28C46.866 28 50 24.866 50 21V15H47M35 15V8.5C35 7.67157 35.6716 7 36.5 7V7C37.3284 7 38 7.67157 38 8.5V15M35 15V17H38V15M38 15H44M47 15V17H44V15M47 15V8.5C47 7.67157 46.3284 7 45.5 7V7C44.6716 7 44 7.67157 44 8.5V15" stroke="#31313B"/>
</svg>
