<svg viewBox="0 0 18 18" fill="none" xmlns="http://www.w3.org/2000/svg">
<path d="M1 16.875C1.70684 14.0823 4.19979 12.0187 7.16668 12.0187C10.1336 12.0187 12.6265 14.0823 13.3334 16.875" stroke="#31313B" stroke-width="2"/>
<path d="M9.59259 6.46876C9.59259 7.84397 8.49479 8.93752 7.16666 8.93752C5.83853 8.93752 4.74072 7.84397 4.74072 6.46876C4.74072 5.09355 5.83853 4 7.16666 4C8.49479 4 9.59259 5.09355 9.59259 6.46876Z" stroke="#31313B" stroke-width="2"/>
<path d="M12 9C14.4056 9 16.4269 10.6997 17 13" stroke="#31313B" stroke-width="2"/>
<path d="M12.0002 6C13.1048 6 14.0002 5.10457 14.0002 4C14.0002 2.89543 13.1048 2 12.0002 2C11.4496 2 10.951 2.22247 10.5894 2.58242" stroke="#31313B" stroke-width="2"/>
</svg>
