<svg viewBox="0 0 40 40" fill="none" xmlns="http://www.w3.org/2000/svg">
<rect x="13" y="30.1422" width="14" height="4" rx="2" stroke="#31313B" stroke-width="2"/>
<path d="M16 34.1422H24V37.1422C24 37.6944 23.5523 38.1422 23 38.1422H17C16.4477 38.1422 16 37.6944 16 37.1422V34.1422Z" stroke="#31313B" stroke-width="2"/>
<path d="M27 23.1422C30.9052 19.2369 30.9761 12.9763 27.0709 9.07108C23.1656 5.16584 16.834 5.16584 12.9287 9.07108C9.02349 12.9763 9.09476 19.2369 13 23.1422C15.071 25.2132 14.9998 27.1422 14.9998 30.1422L25 30.1422C25 27.1422 24.9291 25.213 27 23.1422Z" fill="white" stroke="#31313B" stroke-width="2"/>
<circle cx="35" cy="22.1422" r="3" stroke="#31313B" stroke-width="2"/>
<circle cx="4" cy="22.1422" r="3" stroke="#31313B" stroke-width="2"/>
<path d="M10 16.217C4.42025 11.9314 1.16385 7.90957 2.18692 6.09171C3.6069 3.56862 12.7332 6.24683 22.5711 12.0737C26.7678 14.5593 30.416 17.2164 33.1098 19.6422M25.5 25.3756C31.8402 28.1411 36.7975 28.9971 37.8131 27.1926C38.1882 26.526 37.988 25.5631 37.3088 24.3996" stroke="#31313B" stroke-width="2"/>
<path d="M10 17.0673C8.6325 18.1176 7.40456 19.1521 6.34496 20.1422M25.5 7.90866C31.8402 5.14317 36.7975 4.28723 37.8131 6.09171C39.2331 8.61481 32.409 15.3838 22.5711 21.2106C12.7332 27.0375 3.6069 29.7157 2.18692 27.1926C1.83818 26.5729 1.9867 25.6972 2.555 24.6422" stroke="#31313B" stroke-width="2"/>
</svg>
