<svg viewBox="0 0 56 56" fill="none" xmlns="http://www.w3.org/2000/svg">
<path d="M27.7778 12H22.2222L20 19" stroke="#31313B"/>
<path d="M20.0208 18.9498L13.4997 15.5714L9.57135 19.4997L12.9497 26.0208" stroke="#31313B"/>
<path d="M13 26L6 28.2222L6 33.7778L13 36" stroke="#31313B"/>
<path d="M12.95 36L9.57157 42.5211L13.4999 46.4495L20.021 43.0711" stroke="#31313B"/>
<path d="M27.7778 50L22.2223 50L20.0001 43" stroke="#31313B"/>
<path d="M31.5 19.7392C29.5879 18.6331 27.3679 18 25 18C17.8203 18 12 23.8203 12 31C12 38.1797 17.8203 44 25 44H42" stroke="#31313B"/>
<circle cx="25" cy="31" r="4" stroke="#31313B"/>
<path d="M15 31C15 25.4772 19.4772 21 25 21" stroke="#31313B"/>
<path d="M33 22H31V26H47V22H45M33 22L28 14M33 22H45M28 14V6H50V14M28 14H50M50 14L45 22" stroke="#31313B"/>
<rect x="33" y="26" width="12" height="4" stroke="#31313B"/>
<path d="M36 30H42V32M36 30L42 32M36 30V33M42 32V35M36 33L42 35M36 33V36M42 35V37L41.3333 37.6667M36 36V37L39 40L41.3333 37.6667M36 36L41.3333 37.6667" stroke="#31313B"/>
</svg>
