<svg viewBox="0 0 56 56" fill="none" xmlns="http://www.w3.org/2000/svg">
<path d="M10 51V52H44.8006V51C44.8006 48.7909 43.0098 47 40.8006 47H14C11.7909 47 10 48.7909 10 51Z" stroke="black"/>
<path d="M29.6646 44.9515C29.6646 42.2169 31.8814 40 34.6161 40V40C37.3507 40 39.5676 42.2169 39.5676 44.9515V47H29.6646V44.9515Z" stroke="black"/>
<path d="M34.1672 40H16.8335C15.7289 40 14.8335 40.8954 14.8335 42V43H29.8171" stroke="black"/>
<ellipse cx="37.092" cy="34.5" rx="2.47576" ry="2.5" stroke="black"/>
<path d="M39.5677 47C42.0435 42.5 46.0047 32 35.1113 19.5" stroke="black"/>
<path d="M37.0207 40.65C37.305 39.5498 37.5115 38.3273 37.5702 37M37.0728 32C36.3531 29.0445 34.7986 25.7798 31.9219 22.3276" stroke="black"/>
<rect width="20.1524" height="9.2882" transform="matrix(0.703654 -0.710543 0.703654 0.710543 16.5601 25.1289)" stroke="black"/>
<rect width="2.87891" height="13.9323" transform="matrix(-0.703654 0.710543 0.703654 0.710543 14.9263 23.4789)" stroke="black"/>
<rect width="7.19727" height="4.6441" transform="matrix(0.703654 -0.710543 0.703654 0.710543 32.374 12.4597)" stroke="black"/>
<rect width="2.87891" height="6.96615" transform="matrix(0.703654 -0.710543 0.703654 0.710543 36.6216 6.52057)" stroke="black"/>
</svg>
