<svg viewBox="0 0 26 26" fill="none" xmlns="http://www.w3.org/2000/svg">
<path d="M15.4502 5.22183C17.7308 4.23742 19.7153 4.1592 20.7779 5.22183C22.7305 7.17445 20.831 12.2398 16.5353 16.5355C12.2395 20.8313 7.17419 22.7308 5.22157 20.7782C3.26895 18.8256 5.16844 13.7602 9.46421 9.46447C9.72303 9.20565 9.98465 8.95553 10.2482 8.71442" stroke="#31313B" stroke-width="2"/>
<path d="M10.6335 17.6304C10.2394 17.2853 9.84878 16.92 9.46428 16.5355C6.60267 13.6739 4.80441 10.4708 4.49985 8.07385C4.46974 7.64195 4.40032 6.69072 4.36351 6.341M16.1419 21.0522C17.5114 21.5448 18.7429 21.6812 19.6883 21.4059M6.49985 4.54552C8.90994 4.00102 12.9854 5.91453 16.5353 9.46447C19.4264 12.3556 21.2322 15.5952 21.5087 18" stroke="#31313B" stroke-width="2"/>
<circle cx="4.93115" cy="5.17172" r="2" stroke="#31313B" stroke-width="2"/>
<circle cx="21" cy="20" r="2" stroke="#31313B" stroke-width="2"/>
</svg>
