<svg viewBox="0 0 24 24" fill="none" xmlns="http://www.w3.org/2000/svg">
<rect x="2" y="2" width="20" height="20" rx="10" stroke="#31313B" stroke-width="2"/>
<path d="M12.202 17C11.1773 17 10.2928 16.7256 9.54844 16.177C8.81281 15.6283 8.29611 14.8647 7.99836 13.8861H7V12.5007H7.74877C7.74001 12.4001 7.73563 12.2355 7.73563 12.0069C7.73563 11.7874 7.74001 11.6228 7.74877 11.513H7V10.1276H7.99836C8.29611 9.14906 8.81281 8.38546 9.54844 7.83676C10.2928 7.27892 11.1773 7 12.202 7C12.7712 7 13.266 7.06401 13.6864 7.19204C14.1067 7.32007 14.5096 7.52126 14.8949 7.79561V9.78464C14.5359 9.47371 14.1593 9.25423 13.7652 9.1262C13.3799 8.98903 12.9288 8.92044 12.4122 8.92044C11.3437 8.92044 10.595 9.32282 10.1658 10.1276H12.0312V11.513H9.78489C9.77614 11.6228 9.77176 11.7874 9.77176 12.0069C9.77176 12.2355 9.77614 12.4001 9.78489 12.5007H12.0312V13.8861H10.1658C10.5862 14.7 11.335 15.107 12.4122 15.107C12.9464 15.107 13.4105 15.0384 13.8046 14.9012C14.1987 14.7641 14.5972 14.5263 15 14.1879V16.1632C14.6322 16.465 14.2293 16.6799 13.7915 16.808C13.3623 16.936 12.8325 17 12.202 17Z" fill="#31313B"/>
</svg>
