<svg viewBox="0 0 56 56" fill="none" xmlns="http://www.w3.org/2000/svg">
<ellipse cx="18.1381" cy="16" rx="5.37931" ry="6" stroke="#31313B"/>
<path d="M37.8623 22C40.8332 22 43.2416 19.3137 43.2416 16C43.2416 12.6863 40.8332 10 37.8623 10" stroke="#31313B"/>
<path d="M15.4482 16C15.4482 14.3431 16.6524 13 18.1379 13" stroke="#31313B"/>
<path d="M18.1377 10H37.8618M18.1377 22H37.8618" stroke="#31313B"/>
<path d="M23.5171 15H28.8964M31.5861 15H33.3792M35.6206 15H43.2413M23.0688 19H27.1033M30.6895 19H36.5171M39.2068 19H42.3447" stroke="#31313B"/>
<ellipse cx="22.6205" cy="28" rx="5.37931" ry="6" stroke="#31313B"/>
<path d="M42.3447 34C45.3156 34 47.724 31.3137 47.724 28C47.724 24.6863 45.3156 22 42.3447 22" stroke="#31313B"/>
<path d="M19.9312 28C19.9312 26.3431 21.1354 25 22.6208 25" stroke="#31313B"/>
<path d="M22.6206 22H42.3447M22.6206 34H42.3447" stroke="#31313B"/>
<path d="M28 27H33.3793M36.069 27H37.8621M40.1035 27H47.7242M27.5518 31H31.5862M35.1724 31H41M43.6897 31H46.8276" stroke="#31313B"/>
<ellipse cx="28.8964" cy="40" rx="5.37931" ry="6" stroke="#31313B"/>
<path d="M48.6206 46C51.5915 46 53.9999 43.3137 53.9999 40C53.9999 36.6863 51.5915 34 48.6206 34" stroke="#31313B"/>
<path d="M26.207 40C26.207 38.3431 27.4112 37 28.8967 37" stroke="#31313B"/>
<path d="M9.17236 28C9.17236 26.3431 10.3766 25 11.862 25" stroke="#31313B"/>
<path d="M15.4482 40C15.4482 38.3431 16.6524 37 18.1379 37" stroke="#31313B"/>
<path d="M4.68945 40C4.68945 38.3431 5.89365 37 7.37911 37" stroke="#31313B"/>
<path d="M28.8965 34H48.6206M28.8965 46H48.6206" stroke="#31313B"/>
<ellipse cx="11.8622" cy="28" rx="5.37931" ry="6" stroke="#31313B"/>
<path d="M11.8623 22H31.5864M11.8623 34H31.5864" stroke="#31313B"/>
<ellipse cx="18.1381" cy="40" rx="5.37931" ry="6" stroke="#31313B"/>
<path d="M18.1377 34H37.8618M18.1377 46H37.8618" stroke="#31313B"/>
<ellipse cx="7.37931" cy="40" rx="5.37931" ry="6" stroke="#31313B"/>
<path d="M7.37939 34H27.1035M7.37939 46H27.1035" stroke="#31313B"/>
<path d="M34.2759 39H39.6552M42.3449 39H44.138M46.3794 39H54M33.8276 43H37.8621M41.4483 43H47.2759M49.9656 43H53.1035" stroke="#31313B"/>
</svg>
