<svg viewBox="0 0 56 56" fill="none" xmlns="http://www.w3.org/2000/svg">
<path d="M9.73926 18.4909C15.5415 18.4909 21.0613 15.8892 24.8821 11.3535L28.0001 7.65216L31.1181 11.3535C34.9389 15.8892 40.4587 18.4909 46.261 18.4909C46.261 31.0579 39.7782 42.6613 29.2736 48.8962L28.0001 49.6522L26.7266 48.8962C16.222 42.6613 9.73926 31.0579 9.73926 18.4909Z" stroke="#31313B"/>
<path d="M7 16.4881C13.6726 16.4881 20.0204 13.4905 24.4143 8.26461L28 4L31.5857 8.26462C35.9796 13.4905 42.3274 16.4881 49 16.4881C49 30.9675 41.5448 44.3367 29.4645 51.5204L28 52.3913L26.5355 51.5204C14.4552 44.3367 7 30.9675 7 16.4881Z" stroke="#31313B"/>
<path d="M31.933 24.9232C32.9768 26.3571 34.1599 27.9821 34.3551 30.5749C34.3551 30.5749 34.3915 31.0811 34.3915 31.2618C34.3915 34.8506 31.5343 37.7718 28.0189 37.7821H28.0144C28.0102 37.7831 28.0051 37.7824 28.0002 37.7821C24.4762 37.7821 21.6089 34.8569 21.6089 31.2618C21.6089 31.1384 21.6092 31.0149 21.6165 30.8918C21.7205 27.1913 23.8302 26.2705 23.9061 26.233C23.9096 26.2571 24.4224 28.7357 25.8705 29.0513C25.8763 28.0997 25.9183 26.6589 26.2356 25.3773C26.6926 23.5364 28.3698 21.5795 29.9378 20.4348C29.9378 22.126 30.9656 23.5948 31.9323 24.9224L31.933 24.9232Z" stroke="#31313B"/>
<path d="M29.6853 33.0449C30.1327 33.5732 30.6397 34.1719 30.7234 35.1271C30.7234 35.1271 30.739 35.3136 30.739 35.3802C30.739 36.7024 29.5145 37.7786 28.0079 37.7824H28.006C28.0042 37.7828 28.002 37.7825 27.9999 37.7824C26.4896 37.7824 25.2607 36.7047 25.2607 35.3802C25.2607 35.3347 25.2609 35.2892 25.264 35.2439C25.3086 33.8805 26.2127 33.5413 26.2453 33.5275C26.2468 33.5363 26.4665 34.4495 27.0871 34.5658C27.0897 34.2152 27.1076 33.6844 27.2436 33.2122C27.4395 32.534 28.1583 31.813 28.8303 31.3913C28.8303 32.0144 29.2708 32.5555 29.6851 33.0446L29.6853 33.0449Z" stroke="#31313B"/>
</svg>
