<svg viewBox="0 0 56 56" fill="none" xmlns="http://www.w3.org/2000/svg">
<path d="M5 50H52" stroke="#31313B"/>
<ellipse cx="16.612" cy="45.6098" rx="4.42353" ry="4.39024" stroke="#31313B"/>
<ellipse cx="42.0471" cy="45.6098" rx="4.42353" ry="4.39024" stroke="#31313B"/>
<path d="M49.7885 31.3415H52.0003V28.0488H50.3415M49.7885 31.3415V43.4146M49.7885 31.3415H45.0885M25.6709 28.0488V22.561H10.4238L5.55322 32.439V43.4146M25.6709 28.0488V31.3415M25.6709 28.0488C26.9611 25.3049 31 19.8171 37.7297 19.8171C45.0885 19.8171 48.8669 25.3049 50.3415 28.0488M25.6709 28.0488H50.3415M17.8238 32.439H21.2473V25.8537H17.8238M17.8238 32.439H9.08263L12.1885 25.8537H17.8238M17.8238 32.439V25.8537M21.2473 36.8293H19.0356M5.55322 43.4146V45.6098H12.1885M5.55322 43.4146H13.0179M49.7885 43.4146V45.6098H46.4709M49.7885 43.4146H45.9179M25.6709 31.3415V43.4146M25.6709 31.3415H33.4768M25.6709 43.4146H33.4768M25.6709 43.4146H20.4826M39.2826 31.3415V42.3171M39.2826 31.3415H45.0885M39.2826 31.3415H33.4768M45.0885 31.3415V42.3171M33.4768 31.3415V43.4146M33.4768 43.4146H38.1768M21.0356 45.6098H37.6238" stroke="#31313B"/>
<path d="M38.592 19.8171C37.8023 15.1452 33.7083 11.5854 28.7767 11.5854C23.2798 11.5854 18.8237 16.0079 18.8237 21.4634C18.8237 21.8344 18.8443 22.2006 18.8845 22.561" stroke="#31313B"/>
<path d="M12.1885 22.561L12.1885 19.2683H15.6462C15.9622 17.2311 16.7315 15.4073 17.9215 13.7943L15.5061 11.3971L18.634 8.29269L21.0764 10.7167C22.6966 9.5765 24.5293 8.80814 26.5649 8.47797V5H30.9885V8.45329C33.0427 8.76458 34.9017 9.5082 36.5286 10.6102L38.8638 8.29269L41.9917 11.3971L39.726 13.6457C40.8998 15.2095 41.701 17.0102 42.0473 18.9939H46V22.5" stroke="#31313B"/>
</svg>
