<svg viewBox="0 0 40 40" fill="none" xmlns="http://www.w3.org/2000/svg">
<path d="M38 20C38 29.9411 29.9411 38 20 38M38 20C38 15.6885 36.4842 11.7311 33.9563 8.63158M38 20H11M20 38C10.0589 38 2 29.9411 2 20M20 38V12.4211M20 38C17 37.3684 11 32.8842 11 20M2 20C2 10.0589 10.0589 2 20 2M2 20H11M20 2C25.6296 2 30.6557 4.58444 33.9563 8.63158M20 2V12.4211M20 2C17 2.63158 11 7.11579 11 20M33.9563 8.63158C32.1463 9.89474 26.8211 12.4211 20 12.4211M20 12.4211C13.1789 12.4211 7.85367 9.89474 6.04367 8.63158M33.9566 31.3684C32.1466 30.1053 26.8213 27.5789 20.0002 27.5789C13.1792 27.5789 7.8539 30.1053 6.04389 31.3684M20.4737 2C23.4737 2.63158 29.4737 7.11579 29.4737 20C29.4737 32.8842 23.4737 37.3684 20.4737 38" stroke="#31313B" stroke-width="2"/>
</svg>
