<?xml version="1.0" standalone="no"?>
<!DOCTYPE svg PUBLIC "-//W3C//DTD SVG 20010904//EN"
 "http://www.w3.org/TR/2001/REC-SVG-20010904/DTD/svg10.dtd">
<svg version="1.0" xmlns="http://www.w3.org/2000/svg"
 width="260.000000pt" height="260.000000pt" viewBox="0 0 260.000000 260.000000"
 preserveAspectRatio="xMidYMid meet">
<metadata>
Created by potrace 1.11, written by Peter Selinger 2001-2013
</metadata>
<g transform="translate(0.000000,260.000000) scale(0.100000,-0.100000)"
fill="#000000" stroke="none">
<path d="M649 2596 c-2 -2 -33 -6 -69 -10 -313 -29 -529 -245 -569 -566 -10
-82 -7 -1410 3 -1475 38 -239 207 -439 426 -505 108 -33 210 -38 870 -38 793
0 844 6 1001 110 159 106 255 265 277 457 4 36 7 377 7 756 0 623 -2 698 -18
770 -58 262 -242 436 -517 491 -35 7 -1404 17 -1411 10z"/>
</g>
</svg>
