<svg viewBox="0 0 16 16" fill="none" xmlns="http://www.w3.org/2000/svg">
<mask id="mask0" mask-type="alpha" maskUnits="userSpaceOnUse" x="0" y="0" width="16" height="16">
<circle cx="8" cy="8" r="8" fill="#C4C4C4"/>
</mask>
<g mask="url(#mask0)">
<path fill-rule="evenodd" clip-rule="evenodd" d="M0 0H31.9952V10.6264H0V0Z" fill="#B20000"/>
<path fill-rule="evenodd" clip-rule="evenodd" d="M0 10.6264H31.9952V15.9993H0V10.6264Z" fill="#429F00"/>
<path fill-rule="evenodd" clip-rule="evenodd" d="M0 0H3.54105V15.996H0V0Z" fill="white"/>
<path fill-rule="evenodd" clip-rule="evenodd" d="M0.1677 0.2709H0.338625V0.5418H0.1677V0.2709ZM0.674025 0.2709H1.18035V0.5418H0.67725L0.674025 0.2709ZM0.841725 0H1.01265V0.2709H0.8385L0.841725 0ZM1.68667 0H1.85437V0.2709H1.68667V0ZM2.36392 0.2709H2.86702V0.5418H2.3607L2.36392 0.2709ZM2.5284 0H2.6961V0.2709H2.5284V0ZM0.506325 0.5418H0.84495V0.8127H0.506325V0.5418ZM1.01265 0.5418H1.35127V0.8127H1.01265V0.5418ZM2.193 0.5418H2.53162V0.8127H2.193V0.5418ZM2.69932 0.5418H3.0315V0.8127H2.70255L2.69932 0.5418ZM0.338625 0.8127H0.674025V1.0836H0.338625V0.8127ZM1.18035 0.8127H1.51897V1.0836H1.18035V0.8127ZM2.0253 0.8127H2.3607V1.0836H2.0253V0.8127ZM2.86702 0.8127H3.20565V1.0836H2.86702V0.8127ZM3.20565 0.2709H3.37335V0.5418H3.20565V0.2709ZM0.1677 1.0836H0.506325V1.3545H0.1677V1.0836ZM1.34805 1.0836H1.68667V1.3545H1.34805V1.0836ZM3.03795 1.0836H3.37335V1.3545H3.03795V1.0836ZM0.338625 1.90275H0.674025V2.17365H0.338625V1.90275ZM0.506325 2.17365H0.84495V2.44455H0.506325V2.17365ZM1.18357 1.90275H1.51575V2.17365H1.18035L1.18357 1.90275ZM1.01265 2.17365H1.34805V2.44455H1.01265V2.17365ZM0.674025 2.44455H1.18035V2.709H0.67725L0.674025 2.44455ZM0.841725 2.709H1.01265V2.98313H0.8385L0.841725 2.709ZM2.0253 1.8963H2.3607V2.17043H2.0253V1.8963ZM2.193 2.17043H2.53162V2.44133H2.193V2.17043ZM2.87025 1.89953H3.20565V2.17043H2.86702L2.87025 1.89953ZM2.69932 2.17043H3.0315V2.44133H2.70255L2.69932 2.17043ZM2.3607 2.44133H2.87025V2.709H2.3607V2.44133ZM2.53162 2.709H2.69932V2.98313H2.53162V2.709ZM1.68667 2.44133H1.85437V2.709H1.68667V2.44133ZM0 2.44133H0.1677V2.709H0V2.44133ZM3.37335 2.44133H3.54105V2.709H3.37335V2.44133ZM0.841725 3.79583H1.01265V4.06673H0.8385L0.841725 3.79583ZM0.674025 4.06673H1.18035V4.33763H0.67725L0.674025 4.06673ZM0.506325 4.33763H1.35127V4.60853H0.506325V4.33763ZM2.53162 3.79583H2.69932V4.06673H2.53162V3.79583Z" fill="#B20000"/>
<path fill-rule="evenodd" clip-rule="evenodd" d="M2.3607 4.06675H2.87025V4.33765H2.3607V4.06675ZM2.193 4.33765H3.03472V4.60855H2.193V4.33765ZM2.3607 5.69215H3.20565V5.96628H2.3607V5.69215ZM2.0253 4.61178H3.20565V4.88268H2.0253V4.61178ZM0.338625 4.61178H1.51575V4.88268H0.338625V4.61178ZM0.506325 5.96628H1.01265V6.2404H0.506325V5.96628ZM0.338625 5.6986H1.18035V5.9695H0.338625V5.6986ZM2.69932 5.15358H3.54105V5.4277H2.70255L2.69932 5.15358ZM2.53162 5.96628H3.03795V6.23718H2.53162V5.96628ZM0.674025 6.23718H0.84495V6.50808H0.674025V6.23718ZM2.69932 6.23718H2.86702V6.50808H2.69932V6.23718ZM0 5.15035H0.84495V5.42448H0V5.15035ZM1.51575 5.69538H2.0253V5.96628H1.51575V5.69538ZM1.68667 5.96628H1.85437V6.23718H1.68667V5.96628ZM1.18035 5.15035H2.3607V5.42448H1.18035V5.15035ZM1.8576 1.08685H2.193V1.35453H1.85437L1.8576 1.08685ZM1.51575 1.35453H2.02207V1.62543H1.51575V1.35453ZM1.34482 1.62543H1.68345V1.89633H1.34805L1.34482 1.62543ZM1.85115 1.62543H2.193V1.89633H1.85437L1.85115 1.62543ZM0 1.35453H0.338625V1.62543H0V1.35453ZM0.1677 1.62543H0.506325V1.89633H0.1677V1.62543ZM3.20565 1.35453H3.54105V1.62543H3.20565V1.35453ZM3.0315 1.62543H3.37012V1.89633H3.03795L3.0315 1.62543ZM0 4.06675H0.1677V4.33765H0V4.06675ZM3.37335 4.06675H3.54105V4.33765H3.37335V4.06675ZM1.51897 6.23718H2.0253V6.50808H1.51575L1.51897 6.23718ZM1.34805 6.50808H1.68667V6.77898H1.34805V6.50808ZM1.85437 6.50808H2.193V6.77898H1.85437V6.50808ZM1.18035 6.77898H1.51897V7.04988H1.18035V6.77898ZM2.0253 6.77898H2.3607V7.04988H2.0253V6.77898ZM1.01265 7.04988H1.35127V7.32078H1.01265V7.04988ZM2.193 7.04988H2.53162V7.32078H2.193V7.04988ZM0.841725 7.32078H1.18035V7.59168H0.841725V7.32078ZM2.3607 7.32078H2.69932V7.59168H2.3607V7.32078ZM0.506325 7.59168H1.01265V7.86258H0.506325V7.59168ZM2.53162 7.59168H3.03795V7.86258H2.53162V7.59168ZM2.86702 7.32078H3.20565V7.59168H2.86702V7.32078ZM3.03795 7.04988H3.37335V7.32078H3.03795V7.04988ZM3.20565 6.77898H3.54105V7.04988H3.20565V6.77898ZM0.3354 7.32078H0.67725V7.59168H0.338625L0.3354 7.32078ZM0.1677 7.04988H0.506325V7.32078H0.1677V7.04988Z" fill="#B20000"/>
<path fill-rule="evenodd" clip-rule="evenodd" d="M0 6.77895H0.338625V7.04985H0V6.77895ZM0.67725 7.86255H0.84495V8.13345H0.674025L0.67725 7.86255ZM2.69932 7.86255H2.86702V8.13345H2.69932V7.86255ZM1.68667 7.04985H1.85437V7.32075H1.68667V7.04985ZM1.18035 7.86255H1.34805V8.13345H1.18035V7.86255ZM2.193 7.86255H2.3607V8.13345H2.193V7.86255ZM1.68667 7.86255H1.85437V8.13345H1.68667V7.86255ZM0 7.86255H0.1677V8.13345H0V7.86255ZM3.37335 7.86255H3.54105V8.13345H3.37335V7.86255ZM1.68667 4.06673H1.85437V4.33763H1.68667V4.06673ZM0.84495 1.35773H1.01265V1.6254H0.84495V1.35773ZM2.53162 1.35773H2.69932V1.6254H2.53162V1.35773ZM1.51575 3.2508H2.02207V3.5217H1.51575V3.2508ZM1.18035 3.52493H1.68667V3.79583H1.18035V3.52493Z" fill="#B20000"/>
<path fill-rule="evenodd" clip-rule="evenodd" d="M1.3481 3.79582H1.51902V4.06672H1.3481V3.79582ZM1.0127 3.25402H1.35132V3.52492H1.0127V3.25402ZM1.1804 2.98312H1.68672V3.25402H1.1804V2.98312ZM1.3481 2.71222H1.51902V2.98312H1.3481V2.71222ZM1.85442 2.98312H2.36075V3.25402H1.85442V2.98312ZM2.02535 2.71222H2.19305V2.98312H2.02535V2.71222ZM2.19305 3.25402H2.53167V3.52492H2.19305V3.25402ZM1.85442 3.52492H2.36075V3.79582H1.85442V3.52492ZM2.02535 3.79582H2.19305V4.06672H2.02535V3.79582ZM2.69937 3.25402H3.038V3.52492H2.69937V3.25402ZM2.86707 2.98312H3.3734V3.25402H2.8703L2.86707 2.98312ZM3.2057 3.25402H3.5411V3.52492H3.2057V3.25402Z" fill="#B20000"/>
<path fill-rule="evenodd" clip-rule="evenodd" d="M2.87025 3.52492H3.37335V3.79582H2.87025V3.52492ZM3.03795 3.79582H3.20565V4.06672H3.03795V3.79582ZM3.03795 2.71222H3.20565V2.98312H3.03795V2.71222ZM0 3.25402H0.338625V3.52492H0V3.25402ZM0.1677 2.98312H0.67725V3.25402H0.1677V2.98312ZM0.506325 3.25402H0.84495V3.52492H0.506325V3.25402Z" fill="#B20000"/>
<path fill-rule="evenodd" clip-rule="evenodd" d="M0.1677 3.52492H0.67725V3.79582H0.1677V3.52492ZM0.338625 3.79582H0.506325V4.06672H0.338625V3.79582ZM0.338625 2.71222H0.506325V2.98312H0.338625V2.71222ZM0.1677 4.87942H0.84495V5.15032H0.1677V4.87942ZM1.01265 4.87942H1.6899V5.15032H1.01265V4.87942ZM1.85437 4.87942H2.53162V5.15032H1.85437V4.87942ZM2.69932 4.87942H3.37657V5.15032H2.69932V4.87942ZM1.34805 5.42122H2.193V5.69535H1.34805V5.42122ZM0.1677 5.42122H1.01265V5.69535H0.1677V5.42122ZM2.53162 5.42122H3.37335V5.69535H2.53162V5.42122ZM3.37335 6.50805H3.54105V6.77894H3.37335V6.50805ZM0 6.50805H0.1677V6.77894H0V6.50805ZM0.1677 15.7283H0.338625V15.4542H0.1677V15.7283ZM0.674025 15.7283H1.18035V15.4542H0.67725L0.674025 15.7283ZM0.841725 15.996H1.01265V15.7283H0.8385L0.841725 15.996ZM1.68667 15.996H1.85437V15.7283H1.68667V15.996ZM2.36392 15.7283H2.86702V15.4574H2.3607L2.36392 15.7283ZM2.53162 15.996H2.69932V15.7283H2.53162V15.996ZM0.506325 15.4542H0.84495V15.1833H0.506325V15.4542ZM1.01265 15.4542H1.35127V15.1833H1.01265V15.4542ZM2.193 15.4542H2.53162V15.1833H2.193V15.4542ZM2.69932 15.4542H3.0315V15.1833H2.70255L2.69932 15.4542ZM1.18357 15.1833H1.51575V14.9124H1.18035L1.18357 15.1833ZM2.02207 15.1833H2.3607V14.9124H2.0253L2.02207 15.1833ZM2.86702 15.1833H3.20565V14.9124H2.86702V15.1833ZM3.20565 15.7283H3.37335V15.4542H3.20565V15.7283ZM0.1677 14.9124H0.506325V14.6415H0.1677V14.9124ZM1.34805 14.9124H1.68667V14.6415H1.34805V14.9124ZM3.03795 14.9124H3.37335V14.6415H3.03795V14.9124ZM0.338625 14.0997H0.674025V13.8288H0.338625V14.0997ZM0.506325 13.8288H0.84495V13.5579H0.506325V13.8288ZM1.18357 14.0997H1.51575V13.8288H1.18035L1.18357 14.0997ZM1.01265 13.8288H1.34805V13.5579H1.01265V13.8288ZM0.674025 13.5579H1.18035V13.287H0.67725L0.674025 13.5579ZM0.841725 13.287H1.01265V13.0161H0.8385L0.841725 13.287ZM2.0253 14.0997H2.3607V13.8288H2.0253V14.0997ZM2.193 13.8288H2.53162V13.5579H2.193V13.8288ZM2.87025 14.0997H3.20565V13.8288H2.86702L2.87025 14.0997ZM2.69932 13.8288H3.0315V13.5579H2.70255L2.69932 13.8288ZM2.3607 13.5579H2.87025V13.287H2.3607V13.5579ZM2.53162 13.287H2.69932V13.0161H2.53162V13.287ZM1.68667 13.5579H1.85437V13.287H1.68667V13.5579ZM0 13.5579H0.1677V13.287H0V13.5579ZM3.37335 13.5579H3.54105V13.287H3.37335V13.5579ZM0.84495 12.2034H1.01265V11.9293H0.84495V12.2034Z" fill="#B20000"/>
<path fill-rule="evenodd" clip-rule="evenodd" d="M0.67725 11.9325H1.18035V11.6584H0.67725V11.9325ZM0.506325 11.6584H1.35127V11.3875H0.506325V11.6584ZM2.53162 12.2002H2.69932V11.9325H2.53162V12.2002ZM2.3607 11.9325H2.87025V11.6584H2.3607V11.9325ZM2.193 11.6584H3.03472V11.3875H2.193V11.6584ZM2.3607 10.3039H3.20565V10.033H2.3607V10.3039ZM2.0253 11.3875H3.20565V11.1166H2.0253V11.3875ZM0.338625 11.3875H1.51575V11.1166H0.338625V11.3875ZM0.506325 10.033H1.01265V9.76209H0.506325V10.033ZM0.338625 10.3039H1.18035V10.033H0.338625V10.3039ZM2.69932 10.8457H3.54105V10.578H2.70255L2.69932 10.8457ZM2.53162 10.033H3.03795V9.76209H2.53162V10.033ZM0 10.8457H0.84495V10.578H0V10.8457ZM1.51575 10.3039H2.0253V10.033H1.51575V10.3039ZM1.68667 10.033H1.85437V9.76209H1.68667V10.033ZM1.18035 10.8457H2.3607V10.578H1.18035V10.8457ZM1.8576 14.9124H2.193V14.6415H1.85437L1.8576 14.9124ZM1.51575 14.6415H2.02207V14.3706H1.51575V14.6415ZM1.34482 14.3706H1.68345V14.0997H1.34805L1.34482 14.3706ZM1.85115 14.3706H2.193V14.0997H1.85437L1.85115 14.3706ZM0 14.6415H0.338625V14.3706H0V14.6415ZM0.1677 14.3706H0.506325V14.0997H0.1677V14.3706ZM3.20565 14.6415H3.54105V14.3706H3.20565V14.6415ZM3.03472 14.3706H3.37335V14.0997H3.03795L3.03472 14.3706ZM0 11.9325H0.1677V11.6616H0V11.9325ZM3.37335 11.9325H3.54105V11.6616H3.37335V11.9325ZM1.34805 9.49441H1.68667V9.22351H1.34805V9.49441ZM1.85437 9.49441H2.193V9.22351H1.85437V9.49441ZM1.18035 9.22351H1.51897V8.95261H1.18035V9.22351ZM2.0253 9.22351H2.3607V8.95261H2.0253V9.22351ZM1.01265 8.94938H1.34805V8.67526H1.01265V8.94938ZM2.193 8.94938H2.53162V8.67526H2.193V8.94938ZM0.841725 8.67526H1.18035V8.40758H0.841725V8.67526ZM2.3607 8.67526H2.69932V8.40758H2.3607V8.67526ZM0.506325 8.40758H1.01265V8.13346H0.506325V8.40758ZM2.53162 8.40758H3.03795V8.13346H2.53162V8.40758ZM2.86702 8.67848H3.20565V8.40436H2.86702V8.67848ZM3.03795 8.94616H3.37335V8.67848H3.03795V8.94616ZM3.20565 9.22028H3.54105V8.94938H3.20565V9.22028ZM0.3354 8.67848H0.67725V8.40436H0.338625L0.3354 8.67848ZM0.1677 8.94616H0.506325V8.67848H0.1677V8.94616ZM0 9.22351H0.338625V8.95261H0V9.22351ZM0.67725 8.13668H0.84495V7.86578H0.674025L0.67725 8.13668ZM1.68667 8.95261H1.85437V8.67526H1.68667V8.95261ZM1.68667 11.9357H1.85437V11.6616H1.68667V11.9357ZM0.84495 14.6447H1.01265V14.3738H0.84495V14.6447ZM2.53162 14.6447H2.69932V14.3738H2.53162V14.6447ZM1.51575 12.7452H2.02207V12.4743H1.51575V12.7452ZM1.17712 12.4743H1.68345V12.2034H1.18035L1.17712 12.4743ZM1.34482 12.2002H1.51575V11.9325H1.34482V12.2002ZM1.00942 12.7452H1.34482V12.4743H1.01265L1.00942 12.7452ZM1.18035 13.0161H1.68667V12.7452H1.18035V13.0161ZM1.34805 13.287H1.51897V13.0161H1.34805V13.287ZM1.85437 13.0161H2.3607V12.7452H1.85437V13.0161ZM2.0253 13.287H2.193V13.0161H2.0253V13.287ZM2.193 12.7452H2.53162V12.4743H2.193V12.7452ZM1.85437 12.4743H2.3607V12.2034H1.85437V12.4743ZM2.0253 12.2002H2.193V11.9325H2.0253V12.2002ZM2.69932 12.7452H3.0315V12.4743H2.70255L2.69932 12.7452ZM2.86702 13.0161H3.37335V12.7452H2.87025L2.86702 13.0161ZM3.20565 12.7452H3.54105V12.4743H3.20565V12.7452ZM2.86702 12.4743H3.37335V12.2034H2.87025L2.86702 12.4743ZM3.03795 12.2002H3.20565V11.9325H3.03795V12.2002ZM3.03795 13.287H3.20565V13.0161H3.03795V13.287ZM0 12.7452H0.338625V12.4743H0V12.7452Z" fill="#B20000"/>
<path fill-rule="evenodd" clip-rule="evenodd" d="M0.1677 13.0161H0.67725V12.7452H0.1677V13.0161ZM0.506325 12.7452H0.84495V12.4743H0.506325V12.7452ZM0.1677 12.4743H0.67725V12.2034H0.1677V12.4743ZM0.338625 12.2002H0.506325V11.9325H0.338625V12.2002ZM0.338625 13.287H0.506325V13.0161H0.338625V13.287ZM0.1677 11.1166H0.84495V10.8457H0.1677V11.1166ZM1.01265 11.1166H1.6899V10.8457H1.01265V11.1166ZM1.85437 11.1166H2.53162V10.8457H1.85437V11.1166ZM2.69932 11.1166H3.37657V10.8457H2.69932V11.1166ZM1.34805 10.578H2.193V10.3071H1.34805V10.578ZM0.1677 10.578H1.01265V10.3071H0.1677V10.578ZM2.53162 10.578H3.37335V10.3071H2.53162V10.578ZM3.37335 9.49442H3.54105V9.22352H3.37335V9.49442ZM0 9.4912H0.1677V9.2203H0V9.4912ZM1.51575 8.1367H1.68667V8.40438H1.51897L1.51575 8.1367ZM1.85437 8.1367H2.0253V8.40438H1.85437V8.1367ZM1.85437 7.59167H2.0253V7.86258H1.85437V7.59167ZM1.51897 7.59167H1.68667V7.86258H1.51897V7.59167ZM0.338625 14.9124H0.674025V15.1833H0.338625V14.9124ZM2.69932 9.7621H2.86702V9.4912H2.69932V9.7621ZM0.674025 9.7621H0.841725V9.4912H0.67725L0.674025 9.7621ZM1.51897 9.4912H2.0253V9.7621H1.51575L1.51897 9.4912Z" fill="#B20000"/>
</g>
</svg>
