<svg width="32" height="32" viewBox="0 0 32 32" fill="none" xmlns="http://www.w3.org/2000/svg">
<path d="M0 4.00012C0 1.79098 1.79086 0.00012207 4 0.00012207H28C30.2091 0.00012207 32 1.79098 32 4.00012V28.0001C32 30.2093 30.2091 32.0001 28 32.0001H4C1.79086 32.0001 0 30.2093 0 28.0001V4.00012Z" fill="#4267B2"/>
<path d="M21 7.00016V10.7502H17.8966C17.5173 10.7502 17.2069 11.0877 17.2069 11.5002V13.7502H20.6552V17.5002H17.2069V25.0001H13.7586V17.5001H11V13.7501H13.7586V11.5001C13.7586 9.13761 15.4138 7.18763 17.5517 7.00012H21V7.00016Z" fill="white"/>
</svg>
