<svg viewBox="0 0 20 20" fill="none" xmlns="http://www.w3.org/2000/svg">
<path d="M18 11.8096V18H14.5707V12.2242C14.5707 10.7733 14.0747 9.78305 12.8334 9.78305C11.8858 9.78305 11.3219 10.4504 11.0738 11.0959C10.9833 11.3267 10.9601 11.6479 10.9601 11.9709V18H7.52958C7.52958 18 7.57579 8.21766 7.52958 7.20414H10.9597V8.73441C10.9528 8.74586 10.9437 8.7582 10.9372 8.76929H10.9597V8.73441C11.4154 7.99985 12.2293 6.95052 14.051 6.95052C16.308 6.95048 18 8.49352 18 11.8096ZM3.94116 2C2.76761 2 2 2.80556 2 3.86491C2 4.90116 2.7454 5.73117 3.89563 5.73117H3.91855C5.11484 5.73117 5.85882 4.90132 5.85882 3.86491C5.83628 2.80556 5.11484 2 3.94116 2ZM2.20374 18H5.63291V7.20414H2.20374V18Z" fill="#0077B5"/>
</svg>
