<svg width="32" height="32" viewBox="0 0 32 32" fill="none" xmlns="http://www.w3.org/2000/svg">
<path d="M0 4.00012C0 1.79098 1.79086 0.00012207 4 0.00012207H28C30.2091 0.00012207 32 1.79098 32 4.00012V28.0001C32 30.2093 30.2091 32.0001 28 32.0001H4C1.79086 32.0001 0 30.2093 0 28.0001V4.00012Z" fill="#0077B5"/>
<path d="M23.2 17.6287V23.2001H20.1136V18.0019C20.1136 16.696 19.6672 15.8049 18.55 15.8049C17.6972 15.8049 17.1897 16.4054 16.9664 16.9864C16.885 17.1941 16.864 17.4832 16.864 17.7739V23.2001H13.7766C13.7766 23.2001 13.8182 14.396 13.7766 13.4838H16.8637V14.8611C16.8575 14.8714 16.8493 14.8825 16.8434 14.8925H16.8637V14.8611C17.2739 14.2 18.0064 13.2556 19.6459 13.2556C21.6772 13.2555 23.2 14.6443 23.2 17.6287ZM10.547 8.80011C9.49083 8.80011 8.79999 9.52512 8.79999 10.4785C8.79999 11.4112 9.47085 12.1582 10.5061 12.1582H10.5267C11.6033 12.1582 12.2729 11.4113 12.2729 10.4785C12.2526 9.52512 11.6033 8.80011 10.547 8.80011ZM8.98335 23.2001H12.0696V13.4838H8.98335V23.2001Z" fill="white"/>
</svg>
