<svg width="32" height="32" viewBox="0 0 32 32" fill="none" xmlns="http://www.w3.org/2000/svg">
<path d="M0 4.00012C0 1.79098 1.79086 0.00012207 4 0.00012207H28C30.2091 0.00012207 32 1.79098 32 4.00012V28.0001C32 30.2093 30.2091 32.0001 28 32.0001H4C1.79086 32.0001 0 30.2093 0 28.0001V4.00012Z" fill="#1DA1F2"/>
<path d="M26 9.89232C25.2639 10.2136 24.4741 10.4315 23.6442 10.5287C24.4915 10.029 25.1402 9.23624 25.4476 8.29456C24.6527 8.75739 23.7754 9.09346 22.8406 9.27564C22.092 8.48907 21.0271 7.99915 19.8461 7.99915C17.5803 7.99915 15.7431 9.80863 15.7431 12.0391C15.7431 12.3554 15.7794 12.6644 15.8494 12.9598C12.44 12.7912 9.41684 11.1824 7.39347 8.73769C7.03977 9.33348 6.83856 10.0277 6.83856 10.7687C6.83856 12.1708 7.56343 13.4079 8.66324 14.1317C7.99085 14.1095 7.35847 13.9273 6.80484 13.6245V13.675C6.80484 15.6322 8.21958 17.2656 10.0955 17.6374C9.75177 17.7285 9.38935 17.779 9.01442 17.779C8.74948 17.779 8.49327 17.7531 8.24206 17.7039C8.76445 19.3102 10.2792 20.4784 12.0739 20.5104C10.6704 21.5937 8.90069 22.2374 6.97856 22.2374C6.64739 22.2374 6.32118 22.2177 6 22.182C7.81592 23.3305 9.97177 24.0001 12.2888 24.0001C19.8362 24.0001 23.9617 17.843 23.9617 12.5032L23.9479 11.98C24.754 11.4138 25.4513 10.7023 26 9.89232Z" fill="white"/>
</svg>
