<svg viewBox="0 0 20 20" fill="none" xmlns="http://www.w3.org/2000/svg">
<path d="M20 3.89219C19.2639 4.21346 18.4741 4.43133 17.6442 4.5286C18.4915 4.02883 19.1402 3.23612 19.4476 2.29444C18.6527 2.75726 17.7754 3.09333 16.8406 3.27551C16.092 2.48895 15.0271 1.99902 13.8461 1.99902C11.5803 1.99902 9.74312 3.80851 9.74312 6.03897C9.74312 6.35531 9.77936 6.66428 9.84936 6.95972C6.44001 6.79106 3.41684 5.18224 1.39347 2.73756C1.03977 3.33336 0.838563 4.02757 0.838563 4.76863C0.838563 6.17068 1.56343 7.40777 2.66324 8.13154C1.99085 8.1094 1.35847 7.92722 0.804838 7.6244V7.67487C0.804838 9.63206 2.21958 11.2655 4.09546 11.6373C3.75177 11.7284 3.38935 11.7788 3.01442 11.7788C2.74948 11.7788 2.49327 11.753 2.24206 11.7037C2.76445 13.3101 4.27919 14.4783 6.07387 14.5103C4.67037 15.5935 2.90069 16.2373 0.978564 16.2373C0.647387 16.2373 0.321177 16.2176 0 16.1819C1.81592 17.3304 3.97177 18 6.28883 18C13.8362 18 17.9617 11.8429 17.9617 6.50305L17.9479 5.97991C18.754 5.41363 19.4513 4.70216 20 3.89219Z" fill="#1DA1F2"/>
</svg>
