<svg viewBox="0 0 20 20" fill="none" xmlns="http://www.w3.org/2000/svg">
<path d="M2.63896 3.95017C2.45537 3.95017 2.30086 4.01117 2.22292 4.13047C2.14254 4.25357 2.15471 4.41227 2.24047 4.57287L4.303 7.94892C4.30649 7.95532 4.30649 7.95942 4.303 7.96532L1.06184 13.3736C0.977339 13.5328 0.981463 13.6927 1.06184 13.8161C1.13967 13.9348 1.27684 14.0127 1.46064 14.0127H4.51102C4.96703 14.0127 5.18711 13.7217 5.34299 13.4557C5.34299 13.4557 8.51277 8.15481 8.63618 7.94902C8.62371 7.93002 6.53907 4.49107 6.53907 4.49107C6.38689 4.23537 6.15772 3.95007 5.68987 3.95007H2.63896V3.95017Z" fill="#005A5F"/>
<path d="M15.4545 0.000299831C14.9988 0.000299831 14.8014 0.271697 14.6378 0.549693C14.6378 0.549693 8.06619 11.5695 7.84961 11.9313C7.86071 11.9509 12.1838 19.4503 12.1838 19.4503C12.3353 19.7061 12.5689 19.9997 13.0362 19.9997H16.083C16.2668 19.9997 16.4104 19.9343 16.4878 19.8154C16.5692 19.6924 16.5669 19.5297 16.4816 19.3696L12.1812 11.9402C12.1792 11.9375 12.1781 11.9342 12.1781 11.9308C12.1781 11.9274 12.1792 11.9241 12.1812 11.9213L18.935 0.629492C19.0199 0.470094 19.0217 0.307496 18.9414 0.184298C18.8636 0.0654994 18.7196 0 18.5358 0H15.4542V0.000199888H15.4545V0.000299831Z" fill="#D4D600"/>
</svg>
