<svg width="32" height="32" viewBox="0 0 32 32" fill="none" xmlns="http://www.w3.org/2000/svg">
<path d="M0 4.00012C0 1.79098 1.79086 0.00012207 4 0.00012207H28C30.2091 0.00012207 32 1.79098 32 4.00012V28.0001C32 30.2093 30.2091 32.0001 28 32.0001H4C1.79086 32.0001 0 30.2093 0 28.0001V4.00012Z" fill="#005A5F"/>
<path d="M9.37508 10.5553C9.20985 10.5553 9.07079 10.6102 9.00065 10.7175C8.92831 10.8283 8.93926 10.9712 9.01645 11.1157L10.8727 14.1541C10.8759 14.1599 10.8759 14.1636 10.8727 14.1689L7.95568 19.0364C7.87963 19.1797 7.88334 19.3236 7.95568 19.4346C8.02573 19.5415 8.14918 19.6116 8.3146 19.6116H11.0599C11.4704 19.6116 11.6684 19.3497 11.8087 19.1103C11.8087 19.1103 14.6615 14.3394 14.7726 14.1542C14.7614 14.1371 12.8852 11.0421 12.8852 11.0421C12.7482 10.8119 12.542 10.5552 12.1209 10.5552H9.37508V10.5553Z" fill="white"/>
<path d="M20.9089 7.00039C20.4988 7.00039 20.3211 7.24465 20.1738 7.49485C20.1738 7.49485 14.2594 17.4127 14.0645 17.7383C14.0745 17.756 17.9653 24.5054 17.9653 24.5054C18.1016 24.7357 18.3119 24.9999 18.7325 24.9999H21.4746C21.64 24.9999 21.7692 24.941 21.8389 24.834C21.9122 24.7233 21.9101 24.5769 21.8333 24.4328L17.9629 17.7463C17.9611 17.7438 17.9602 17.7409 17.9602 17.7378C17.9602 17.7348 17.9611 17.7318 17.9629 17.7293L24.0413 7.56666C24.1178 7.42321 24.1194 7.27687 24.0471 7.16599C23.9771 7.05907 23.8475 7.00012 23.682 7.00012H20.9086V7.0003H20.9089V7.00039Z" fill="#D4D600"/>
</svg>
