<svg viewBox="0 0 28 28" fill="none" xmlns="http://www.w3.org/2000/svg">
<path d="M1 9H8.00063" stroke="#31313B"/>
<path d="M19.9582 8.90625H20.4998C21.6965 8.90625 22.6665 9.8763 22.6665 11.0729V11.0729C22.6665 12.2695 21.6965 13.2396 20.4998 13.2396H9.6665" stroke="#31313B"/>
<path d="M9.66667 17.5729H7.5C6.30338 17.5729 5.33333 16.6029 5.33333 15.4063V15.4063C5.33333 14.2097 6.30338 13.2396 7.5 13.2396H10.75M18.3333 17.5729H27" stroke="#31313B"/>
<path d="M8.0415 20.8229V21.9063H13.9998H19.9582V20.8229C19.9582 19.9746 19.6924 19.2856 19.3274 18.6563H8.67226C8.30725 19.2856 8.0415 19.9746 8.0415 20.8229Z" fill="#FA6705"/>
<path d="M13.9998 21.9063H8.0415V20.8229C8.0415 19.9746 8.30725 19.2856 8.67226 18.6563M13.9998 21.9063V26.2396M13.9998 21.9063H19.9582V20.8229C19.9582 19.9746 19.6924 19.2856 19.3274 18.6563M13.9998 26.2396H10.7498M13.9998 26.2396H17.2498M8.67226 18.6563C9.4725 17.2765 10.7498 16.1829 10.7498 14.3229C10.7498 11.6146 8.0415 10.5313 8.0415 8.90627C8.0415 8.52042 8.0415 8.3178 8.0415 8.19691C8.0415 7.09234 8.96638 6.26083 10.0117 5.90406C11.8553 5.27489 12.3748 3.78671 12.3748 2.94794H13.9998H15.6248C15.6248 3.78671 16.1444 5.27489 17.9879 5.90406C19.0333 6.26083 19.9582 7.09337 19.9582 8.19794V8.90627C19.9582 10.5313 17.2498 11.6146 17.2498 14.3229C17.2498 16.1829 18.5272 17.2765 19.3274 18.6563M8.67226 18.6563H19.3274" stroke="#31313B"/>
</svg>
