<svg viewBox="0 0 28 28" fill="none" xmlns="http://www.w3.org/2000/svg">
<path d="M6.7998 24.4533C7.64802 21.102 10.6396 18.6257 14.1999 18.6257C17.7603 18.6257 20.7518 21.102 21.6 24.4533" stroke="#31313B"/>
<path d="M17.8107 11.9656C17.8107 13.9943 16.1881 15.6282 14.1996 15.6282C12.211 15.6282 10.5884 13.9943 10.5884 11.9656C10.5884 9.93695 12.211 8.30304 14.1996 8.30304C16.1881 8.30304 17.8107 9.93695 17.8107 11.9656Z" fill="#FA6705" stroke="#31313B"/>
<path d="M11.9209 5.40302C12.3359 4.68565 13.1115 4.203 13.9998 4.203C14.8882 4.203 15.6638 4.68565 16.0788 5.40302" stroke="#31313B"/>
<path d="M20 15.0031C22.8867 15.0031 25.3123 17.0428 26.0001 19.8032" stroke="#31313B"/>
<path d="M20.0002 11.4031C21.3257 11.4031 22.4002 10.3286 22.4002 9.00306C22.4002 7.67756 21.3257 6.60303 20.0002 6.60303C19.3395 6.60303 18.7411 6.87 18.3071 7.30194" stroke="#31313B"/>
<path d="M7.99951 15.0031C5.11277 15.0031 2.68717 17.0428 1.99943 19.8032" stroke="#31313B"/>
<path d="M7.99935 11.4031C6.67385 11.4031 5.59932 10.3286 5.59932 9.00306C5.59932 7.67756 6.67385 6.60303 7.99935 6.60303C8.66005 6.60303 9.25839 6.87 9.69238 7.30194" stroke="#31313B"/>
</svg>
