<svg viewBox="0 0 28 28" fill="none" xmlns="http://www.w3.org/2000/svg">
<path d="M25.9998 16.5853C25.6502 16.3244 25.2666 16.1032 24.8526 15.9348L24.598 14.1845C24.5675 14.0293 24.4283 13.9071 24.2586 13.9071H21.5433C21.3736 13.9071 21.2344 14.0293 21.2072 14.1845L20.9527 15.9348C20.5386 16.1032 20.1551 16.3211 19.8055 16.5853L18.1152 15.9216C17.9624 15.8654 17.7859 15.9216 17.7011 16.0636L16.3434 18.3521C16.2586 18.4941 16.2959 18.6724 16.4249 18.7748L17.8572 19.8679C17.8301 20.0793 17.8097 20.2939 17.8097 20.5119C17.8097 20.7298 17.8301 20.9445 17.8572 21.1558L16.4249 22.2489C16.2959 22.348 16.2586 22.5263 16.3434 22.6716L17.7011 24.9602C17.7859 25.1022 17.9624 25.1616 18.1152 25.1022L19.8055 24.4384" stroke="#31313B"/>
<circle cx="22.9032" cy="20.5119" r="1.70159" stroke="#31313B"/>
<path d="M2.98779 8.40321C2.43551 8.40321 1.98779 8.85093 1.98779 9.40321V11.7056H4.29018C4.84246 11.7056 5.29018 11.2579 5.29018 10.7056V8.40321H2.98779Z" fill="#FA6705"/>
<path d="M4.29018 17.2096C4.84246 17.2096 5.29018 17.6573 5.29018 18.2096V20.5119H1.98779V17.2096H4.29018Z" fill="#FA6705"/>
<path d="M12.9957 20.5119H1.98779M1.98779 20.5119V11.7056M1.98779 20.5119H5.29018V18.2096C5.29018 17.6573 4.84246 17.2096 4.29018 17.2096H1.98779V20.5119ZM18.4997 12.8064V9.40321C18.4997 8.85093 18.052 8.40321 17.4997 8.40321H12.9957M7.49176 8.40321H12.9957M7.49176 8.40321V6.10083C7.49176 5.54855 7.93948 5.10083 8.49177 5.10083H11.9957C12.548 5.10083 12.9957 5.54855 12.9957 6.10083V8.40321M7.49176 8.40321H5.29018M1.98779 11.7056V9.40321C1.98779 8.85093 2.43551 8.40321 2.98779 8.40321H5.29018M1.98779 11.7056H4.29018C4.84246 11.7056 5.29018 11.2579 5.29018 10.7056V8.40321" stroke="#31313B"/>
<path d="M10.2437 11.7056V15.0079" stroke="#31313B"/>
<path d="M17.3989 4C20.0617 4 22.2828 5.8909 22.7928 8.40318" stroke="#31313B"/>
</svg>
