<svg viewBox="0 0 28 28" fill="none" xmlns="http://www.w3.org/2000/svg">
<path d="M10.541 8.95823C10.8313 8.81438 11.131 8.68671 11.439 8.57639C11.9077 8.40848 12.25 7.98164 12.25 7.48372V2.24988H16.3334V7.48364C16.3334 7.98157 16.6757 8.40844 17.1445 8.57635C19.5965 9.45461 21.5249 11.4329 22.3349 13.9166" stroke="#31313B"/>
<path d="M1.85236 23.5083C1.02698 24.9527 2.06994 26.7499 3.73355 26.7499H8.75002H13.7665C15.4301 26.7499 16.4731 24.9527 15.6477 23.5083L13.5 19.7498C12.3333 20.4999 9.6 21.8 8 21C7.22011 20.6101 6.32935 20.4616 5.52459 20.4361C4.67832 20.4092 3.92715 20.5181 3.50001 20.6249L1.85236 23.5083Z" fill="#FA6705"/>
<path d="M3.50001 20.6249L7.00002 14.4999V7.49988H10.5V14.4999L13.5 19.7498M3.50001 20.6249L1.85236 23.5083C1.02698 24.9527 2.06994 26.7499 3.73355 26.7499H8.75002H13.7665C15.4301 26.7499 16.4731 24.9527 15.6477 23.5083L13.5 19.7498M3.50001 20.6249C3.92715 20.5181 4.67832 20.4092 5.52459 20.4361C6.32935 20.4616 7.22011 20.6101 8 21C9.6 21.8 12.3333 20.4999 13.5 19.7498" stroke="#31313B"/>
<path d="M16.3335 15.5416V24.4167V25.125C16.3335 26.0225 17.061 26.75 17.9585 26.75H24.0419C24.9394 26.75 25.6669 26.0225 25.6669 25.125V16.25L27.0756 14.8413C27.4168 14.5001 27.1751 13.9166 26.6926 13.9166H17.9585C17.061 13.9166 16.3335 14.6442 16.3335 15.5416Z" stroke="#31313B"/>
<path d="M18.0835 17.1249H19.8335" stroke="#31313B"/>
<path d="M18.0835 19.7499H19.2502" stroke="#31313B"/>
<path d="M18.0835 22.3749H19.8335" stroke="#31313B"/>
<circle cx="24.5" cy="9.83326" r="1.75001" stroke="#31313B"/>
<circle cx="21.0002" cy="5.16655" r="1.16667" stroke="#31313B"/>
<circle cx="5.83317" cy="3.41655" r="1.16667" stroke="#31313B"/>
</svg>
