<svg viewBox="0 0 28 28" fill="none" xmlns="http://www.w3.org/2000/svg">
<path d="M7.45421 5.3103L4.18139 10.765L9.63608 10.765L9.63608 5.3103H7.45421Z" fill="#FA6705"/>
<path d="M1.99951 26.0381L1.99951 10.765H4.18139M15.0908 26.0381L15.0908 10.765L9.63608 10.765M4.18139 10.765L7.45421 5.3103H9.63608L9.63608 10.765M4.18139 10.765L9.63608 10.765" stroke="#31313B"/>
<path d="M15.0908 14.0378C16.7272 14.0378 21.6365 14.0378 21.6365 17.3107C21.6365 20.5835 18.3636 19.4925 18.3636 22.2199C18.3636 23.439 19.0175 24.0041 19.7407 24.5" stroke="#31313B"/>
<path d="M4 14H13" stroke="#31313B"/>
<path d="M4 23H13" stroke="#31313B"/>
<path d="M4 17H7" stroke="#31313B"/>
<path d="M9 17H12" stroke="#31313B"/>
<path d="M4 20H5" stroke="#31313B"/>
<path d="M15.0908 6.40123V2.03748H26.0002V10.765H19.4546M22.7274 6.40123H19.4546" stroke="#31313B"/>
<path d="M24 11C23.6666 11.5 23.1 12.9 23.5 14.5C24 16.5 25.0001 18 23.5001 20.5C22.6168 21.9721 23.2939 22.5774 24 23.3367" stroke="#31313B"/>
<path d="M6 20H7" stroke="#31313B"/>
<path d="M8 20H9" stroke="#31313B"/>
<path d="M10 20H11" stroke="#31313B"/>
<path d="M12 20H13" stroke="#31313B"/>
</svg>
