<svg viewBox="0 0 28 28" fill="none" xmlns="http://www.w3.org/2000/svg">
<path d="M0 26.8333H3.05704M3.05704 26.8333H10.2442M3.05704 26.8333V19.6461M3.05704 26.8333L10.2442 19.6461M10.2442 23.3333V26.8333M10.2442 23.3333V19.6461M10.2442 23.3333H13M17.9679 23.3333V21.0001H22V23.3333M17.9679 23.3333H22M17.9679 23.3333H15M28 26.8333H23.0588V23.3333H22M10.2442 26.8333L3.05704 19.6461M3.05704 19.6461V18.6666V12.459M3.05704 19.6461L10.2442 12.459M10.2442 12.459L3.05704 5.27179V11.6666V12.459M10.2442 12.459V15.1666V18.6666V19.6461M10.2442 12.459H3.05704M10.2442 12.459V7.00006M3.05704 12.459L10.2442 19.6461M13 23.3333V18.0001M13 23.3333H15M15 23.3333V15.1666" stroke="#31313B"/>
<path d="M18.6667 3.5H15.2071C14.7617 3.5 14.5386 4.03857 14.8536 4.35355L18.6667 8.16667L22.4798 4.35355C22.7948 4.03857 22.5717 3.5 22.1262 3.5H18.6667Z" fill="#FA6705"/>
<path d="M18.6667 8.16667V11.0833C18.6667 12.0498 19.4502 12.8333 20.4167 12.8333V12.8333C21.3832 12.8333 22.1667 13.6168 22.1667 14.5833V15.75C22.1667 16.7165 21.3832 17.5 20.4167 17.5H19.8333C19.189 17.5 18.6667 16.9777 18.6667 16.3333V16.3333M18.6667 8.16667L22.4798 4.35355C22.7948 4.03857 22.5717 3.5 22.1262 3.5H18.6667M18.6667 8.16667L14.8536 4.35355C14.5386 4.03857 14.7617 3.5 15.2071 3.5H18.6667M18.6667 3.5V0" stroke="#31313B"/>
</svg>
