<svg viewBox="0 0 28 28" fill="none" xmlns="http://www.w3.org/2000/svg">
<path d="M7.39527 5.71423L5.99951 8.86791H8.28523L6.46476 12.5714" stroke="#31313B"/>
<path d="M22.5714 10.8571V12.5714C24.465 12.5714 26 11.0363 26 9.14279V4.96888H23.7143H19.1429H16.8571V9.14279C16.8571 11.0363 18.3922 12.5714 20.2857 12.5714C20.2857 11.6246 21.0532 10.8571 21.9999 10.8571H22.5714Z" fill="#FA6705"/>
<path d="M7.21739 16.1987H12.4348V2.28565H2V16.1987H7.21739ZM7.21739 16.1987V22.2856C7.21739 24.4948 9.00825 26.2856 11.2174 26.2856H24C25.1046 26.2856 26 25.3902 26 24.2856V24.0124C26 22.9078 25.1046 22.0124 24 22.0124H18.559C17.4544 22.0124 16.559 21.1169 16.559 20.0124V19.7391C16.559 18.6345 17.4544 17.7391 18.559 17.7391H19.4286C20.5331 17.7391 21.4286 16.8436 21.4286 15.7391V13.7143M21.4286 13.7143H20.2857V12.5714M21.4286 13.7143H22.5714V10.8571M22.5714 10.8571H21.9999C21.0532 10.8571 20.2857 11.6246 20.2857 12.5714V12.5714M22.5714 10.8571V12.5714V12.5714C24.465 12.5714 26 11.0363 26 9.14279V4.96888H23.7143M20.2857 12.5714V12.5714C18.3922 12.5714 16.8571 11.0363 16.8571 9.14279V4.96888H19.1429M19.1429 4.96888V0M19.1429 4.96888H23.7143M23.7143 4.96888V0" stroke="#31313B"/>
</svg>
