<svg viewBox="0 0 29 28" fill="none" xmlns="http://www.w3.org/2000/svg">
<path d="M6.80861 26.8434L22.6694 10.9825" stroke="#31313B"/>
<path d="M26.8433 15.1564L25.1738 13.4869C23.7907 12.1038 21.5482 12.1038 20.1651 13.4869L21.8347 15.1564C23.2178 16.5396 25.4602 16.5396 26.8433 15.1564Z" fill="white" stroke="#31313B"/>
<path d="M18.4955 6.80864L20.1651 8.4782C21.5482 9.86131 21.5482 12.1038 20.1651 13.4869L18.1125 11.4343C16.9409 10.2627 16.9409 8.36323 18.1125 7.19166L18.4955 6.80864Z" fill="#FA6705" stroke="#31313B"/>
<path d="M22.7218 19.2779L21.0522 17.6083C19.6691 16.2252 17.4266 16.2252 16.0435 17.6083L17.7131 19.2779C19.0962 20.661 21.3386 20.661 22.7218 19.2779Z" fill="#FA6705" stroke="#31313B"/>
<path d="M14.3739 10.9301L16.0435 12.5997C17.4266 13.9828 17.4266 16.2252 16.0435 17.6083L13.9909 15.5558C12.8194 14.3842 12.8194 12.4847 13.9909 11.3131L14.3739 10.9301Z" fill="white" stroke="#31313B"/>
<path d="M18.6002 23.3994L16.9306 21.7298C15.5475 20.3467 13.305 20.3467 11.9219 21.7298L13.5915 23.3994C14.9746 24.7825 17.2171 24.7825 18.6002 23.3994Z" fill="white" stroke="#31313B"/>
<path d="M10.2524 15.0516L11.9219 16.7211C13.305 18.1042 13.305 20.3467 11.9219 21.7298L9.86935 19.6772C8.69777 18.5057 8.69777 16.6062 9.86935 15.4346L10.2524 15.0516Z" fill="#FA6705" stroke="#31313B"/>
<path d="M24.0501 10.9717L22.6696 10.9825L22.6804 9.60198C22.6923 8.07714 23.9382 6.83133 25.463 6.81938L26.8435 6.80857L26.8327 8.18905C26.8207 9.71389 25.5749 10.9597 24.0501 10.9717Z" stroke="#31313B"/>
<path d="M1 10.2637C1.38564 10.5515 1.80872 10.7955 2.2655 10.9813L2.5463 12.912C2.58 13.0832 2.73351 13.218 2.92071 13.218H5.91597C6.10317 13.218 6.25668 13.0832 6.28663 12.912L6.56744 10.9813C7.02421 10.7955 7.44729 10.5551 7.83293 10.2637L9.69748 10.9959C9.86596 11.0578 10.0607 10.9959 10.1543 10.8392L11.6519 8.31476C11.7455 8.15811 11.7043 7.9614 11.562 7.84847L9.98203 6.64269C10.012 6.40955 10.0344 6.17277 10.0344 5.93234C10.0344 5.69191 10.012 5.45513 9.98203 5.22198L11.562 4.0162C11.7043 3.90692 11.7455 3.71021 11.6519 3.54992L10.1543 1.02543C10.0607 0.868791 9.86596 0.80322 9.69748 0.868791L7.83293 1.601" stroke="#31313B"/>
<circle cx="4.41568" cy="5.93228" r="1.92856" transform="rotate(-180 4.41568 5.93228)" stroke="#31313B"/>
</svg>
