<svg viewBox="0 0 28 28" fill="none" xmlns="http://www.w3.org/2000/svg">
<path d="M18.3638 26H23.8183" stroke="#31313B"/>
<path d="M0.90918 26L15.091 26" stroke="#31313B"/>
<path d="M7.45477 16.1818H10.7275V12.9091H7.45477V16.1818Z" fill="#FA6705"/>
<path fill-rule="evenodd" clip-rule="evenodd" d="M7.45477 16.1818H10.7275V12.9091H7.45477V16.1818Z" fill="#FA6705"/>
<path d="M15.0911 14V20.5455H18.3639V14H15.0911Z" fill="#FA6705"/>
<path d="M20.5457 20.5455V14V10.7273H22.7275L14.0002 2L5.27295 10.7273H7.45477V14V20.5455M20.5457 20.5455H18.3639M20.5457 20.5455H21.6366V22.7273H6.36386V20.5455H7.45477M7.45477 20.5455H15.0911M12.9093 8.54545H15.0911M15.0911 20.5455V14H18.3639V20.5455M15.0911 20.5455H18.3639M7.45477 16.1818H10.7275V12.9091H7.45477V16.1818Z" stroke="#31313B"/>
<path d="M17.2729 5.27276V3.09094H19.4548V7.45458L17.2729 5.27276Z" stroke="#31313B"/>
<path d="M0.90918 16.1818H7.45463M20.5455 16.1818H27.091" stroke="#31313B"/>
</svg>
