<svg viewBox="0 0 28 28" fill="none" xmlns="http://www.w3.org/2000/svg">
<path d="M13.8787 5.27271H10.8484L9.63623 9.09089" stroke="#31313B"/>
<path d="M9.64812 9.06344L6.09116 7.22067L3.94841 9.36342L5.79117 12.9204" stroke="#31313B"/>
<path d="M5.81818 12.909L2 14.1212L2 17.1515L5.81818 18.3636" stroke="#31313B"/>
<path d="M5.79067 18.3637L3.94791 21.9206L6.09065 24.0634L9.64762 22.2206" stroke="#31313B"/>
<path d="M13.8784 26L10.8481 26L9.63599 22.1818" stroke="#31313B"/>
<path d="M15.9093 9.49411C14.8663 8.89078 13.6554 8.54547 12.3639 8.54547C8.44766 8.54547 5.27295 11.7202 5.27295 15.6364C5.27295 19.5526 8.44766 22.7273 12.3639 22.7273H21.6366" stroke="#31313B"/>
<circle cx="12.3635" cy="15.6363" r="2.18182" stroke="#31313B"/>
<path d="M14 6.36364L16.7273 10.7273H23.2727L26 6.36364H14Z" fill="#FA6705"/>
<path d="M16.7273 10.7273H15.6364V12.9091H24.3636V10.7273H23.2727M16.7273 10.7273L14 6.36364M16.7273 10.7273H23.2727M14 6.36364V2H26V6.36364M14 6.36364H26M26 6.36364L23.2727 10.7273" stroke="#31313B"/>
<rect x="16.7271" y="12.9091" width="6.54545" height="2.18182" fill="#FA6705" stroke="#31313B"/>
<path d="M18.3638 15.0909H21.6365V16.1818V17.8182V18.9091L21.2729 19.2727L20.0001 20.5454L18.3638 18.9091V18.3636V16.7272V15.0909Z" stroke="#31313B"/>
</svg>
