<svg viewBox="0 0 28 28" fill="none" xmlns="http://www.w3.org/2000/svg">
<path d="M5 23.5C5 25.433 9.02944 27 14 27C18.9706 27 23 25.433 23 23.5C23 21.567 18.9706 20 14 20C9.02944 20 5 21.567 5 23.5ZM5 23.5H1" stroke="#31313B"/>
<path d="M22 18C22 19.6569 18.4183 21 14 21C9.58172 21 6 19.6569 6 18C6 16.9689 7.38723 16.0592 9.5 15.5193C10.7821 15.1916 12.3314 15 14 15C15.6686 15 17.2179 15.1916 18.5 15.5193C20.6128 16.0592 22 16.9689 22 18Z" fill="#FA6705"/>
<path d="M22 18C22 19.6569 18.4183 21 14 21C9.58172 21 6 19.6569 6 18C6 16.9689 7.38723 16.0592 9.5 15.5193C10.7821 15.1916 12.3314 15 14 15C15.6686 15 17.2179 15.1916 18.5 15.5193C20.6128 16.0592 22 16.9689 22 18ZM22 18H26" stroke="#31313B"/>
<path d="M7 13.5C7 14.8807 10.134 16 14 16C17.866 16 21 14.8807 21 13.5C21 12.1193 17.866 11 14 11C10.134 11 7 12.1193 7 13.5ZM7 13.5H1" stroke="#31313B"/>
<path d="M9.90909 5.72727V8H18.0909V5.72727M9.90909 5.72727L7 3.36364M9.90909 5.72727H18.0909M18.0909 5.72727L21 3.36364M7 3.36364V1H21V3.36364M7 3.36364H21" stroke="#31313B"/>
</svg>
