<svg viewBox="0 0 28 28" fill="none" xmlns="http://www.w3.org/2000/svg">
<path d="M4 24.2999V26.9999H23.3334V24.2999H4Z" stroke="#31313B"/>
<path d="M14.9248 23.2708C14.9248 21.7516 16.1564 20.52 17.6756 20.52C19.1948 20.52 20.4264 21.7516 20.4264 23.2708V24.3H14.9248V23.2708Z" fill="#FA6705" stroke="#31313B"/>
<path d="M17.4259 20.52H6.68506V22.14H15.0092" stroke="#31313B"/>
<ellipse cx="19.0507" cy="17.55" rx="1.3754" ry="1.35001" stroke="#31313B"/>
<path d="M20.4259 24.3001C21.8013 21.87 24.002 16.2 17.9502 9.44995" stroke="#31313B"/>
<path d="M19.0113 20.8708C19.1693 20.2766 19.284 19.6165 19.3166 18.8997M19.0403 16.1997C18.6405 14.6037 17.7769 12.8408 16.1787 10.9766" stroke="#31313B"/>
<rect width="11.0386" height="5.08766" transform="matrix(0.713664 -0.700488 0.713664 0.700488 7.64453 12.4894)" fill="#FA6705" stroke="#31313B"/>
<rect width="1.57694" height="7.63149" transform="matrix(-0.713664 0.700488 0.713664 0.700488 6.73682 11.5985)" stroke="#31313B"/>
<rect width="3.94235" height="2.54383" transform="matrix(0.713664 -0.700488 0.713664 0.700488 16.4297 5.64807)" stroke="#31313B"/>
<path d="M18.79 2.44092L19.9154 1.33629L22.6386 4.00918L21.5132 5.1138L18.79 2.44092Z" stroke="#31313B"/>
</svg>
