<svg viewBox="0 0 28 28" fill="none" xmlns="http://www.w3.org/2000/svg">
<ellipse cx="21.6173" cy="7.91324" rx="3.39132" ry="3.78263" transform="rotate(90 21.6173 7.91324)" fill="#FA6705" stroke="#31313B"/>
<path d="M17.8346 20.3478C17.8346 22.2208 19.5282 23.7391 21.6173 23.7391C23.7064 23.7391 25.3999 22.2208 25.3999 20.3478" stroke="#31313B"/>
<path d="M21.6175 6.21692C22.662 6.21692 23.5088 6.97609 23.5088 7.91258" stroke="#31313B"/>
<path d="M25.3999 7.9126L25.3999 20.3475M17.8346 7.9126L17.8346 20.3475" stroke="#31313B"/>
<path d="M22.248 11.3038L22.248 14.6951M22.248 16.3908L22.248 17.5212M22.248 18.9343L22.248 23.7386" stroke="#31313B"/>
<ellipse cx="14.0518" cy="10.739" rx="3.39132" ry="3.78263" transform="rotate(90 14.0518 10.739)" stroke="#31313B"/>
<path d="M10.2692 23.1737C10.2692 25.0467 11.9628 26.565 14.0518 26.565C16.1409 26.565 17.8345 25.0467 17.8345 23.1737" stroke="#31313B"/>
<path d="M14.052 9.04382C15.0966 9.04382 15.9434 9.803 15.9434 10.7395" stroke="#31313B"/>
<path d="M17.8345 10.7394L17.8345 23.1743M10.2692 10.7394L10.2692 23.1743" stroke="#31313B"/>
<path d="M14.6821 14.1303L14.6821 17.5216M14.6821 19.2173L14.6821 20.3477M14.6821 21.7608L14.6821 26.5652" stroke="#31313B"/>
<ellipse cx="6.48202" cy="7.7391" rx="3.39132" ry="3.78263" transform="rotate(90 6.48202 7.7391)" stroke="#31313B"/>
<path d="M2.69939 20.1738C2.69939 22.0467 4.39293 23.5651 6.48202 23.5651C8.57111 23.5651 10.2646 22.0467 10.2646 20.1738" stroke="#31313B"/>
<path d="M6.48222 6.04388C7.52676 6.04388 8.37354 6.80306 8.37354 7.73955" stroke="#31313B"/>
<path d="M10.2646 7.7395L10.2646 20.1744M2.69939 7.7395L2.69939 20.1744" stroke="#31313B"/>
<path d="M7.1123 11.1304L7.1123 14.5217M7.1123 16.2174L7.1123 17.3478M7.1123 18.7609L7.1123 23.5652" stroke="#31313B"/>
<path d="M14.052 2.26123C15.0966 2.26123 15.9434 3.0204 15.9434 3.95689" stroke="#31313B"/>
<ellipse cx="14.0518" cy="3.95688" rx="3.39132" ry="3.78263" transform="rotate(90 14.0518 3.95688)" stroke="#31313B"/>
<path d="M17.8345 3.95642L17.8345 16.3913M10.2692 3.95642L10.2692 16.3913" stroke="#31313B"/>
</svg>
