<svg viewBox="0 0 28 28" fill="none" xmlns="http://www.w3.org/2000/svg">
<path d="M6.3 21.125V22.775H8.5V17.825H19.5V22.775H21.7V21.125V15.625H6.3V21.125Z" fill="#FA6705"/>
<path fill-rule="evenodd" clip-rule="evenodd" d="M4.35711 8.76789L3 10.125H25L23.6429 8.76789C23.4554 8.58036 23.201 8.475 22.9358 8.475H20.05H7.95H5.06421C4.799 8.475 4.54464 8.58036 4.35711 8.76789Z" fill="#FA6705"/>
<path d="M3 10.125H25M3 10.125V21.125L4.35711 22.4821M3 10.125L4.35711 8.76789M25 10.125V21.125L23.6429 22.4821M25 10.125L23.6429 8.76789M7.95 8.475H20.05M7.95 8.475H5.06421M7.95 8.475V4.525M20.05 8.475V4.525M20.05 8.475H22.9358M6.3 22.775V15.625M6.3 22.775H8.5M6.3 22.775H5.06421M6.3 22.775V21.125V15.625M6.3 15.625H21.7M21.7 15.625V22.775M21.7 15.625V21.125V22.775M21.7 22.775H19.5M21.7 22.775H22.9358M8.5 22.775V17.825H19.5V22.775M8.5 22.775V25.625M19.5 22.775V25.625M9.6 1.875H18.4M10.7 21.125H15.1M23.6429 22.4821C23.4554 22.6696 23.201 22.775 22.9358 22.775M23.6429 22.4821V22.4821C23.4554 22.6696 23.201 22.775 22.9358 22.775V22.775M19.5 25.625C19.5 26.1773 19.0523 26.625 18.5 26.625M19.5 25.625V25.625C19.5 26.1773 19.0523 26.625 18.5 26.625V26.625M18.5 26.625H9.5M9.5 26.625C8.94772 26.625 8.5 26.1773 8.5 25.625M9.5 26.625V26.625C8.94772 26.625 8.5 26.1773 8.5 25.625V25.625M5.06421 22.775C4.799 22.775 4.54464 22.6696 4.35711 22.4821M5.06421 22.775V22.775C4.799 22.775 4.54464 22.6696 4.35711 22.4821V22.4821M4.35711 8.76789C4.54464 8.58036 4.799 8.475 5.06421 8.475M4.35711 8.76789V8.76789C4.54464 8.58036 4.799 8.475 5.06421 8.475V8.475M7.95 4.525C7.95 3.97272 8.39772 3.525 8.95 3.525M7.95 4.525V4.525C7.95 3.97272 8.39772 3.525 8.95 3.525V3.525M8.95 3.525H19.05M19.05 3.525C19.6023 3.525 20.05 3.97272 20.05 4.525M19.05 3.525V3.525C19.6023 3.525 20.05 3.97272 20.05 4.525V4.525M22.9358 8.475C23.201 8.475 23.4554 8.58036 23.6429 8.76789M22.9358 8.475V8.475C23.201 8.475 23.4554 8.58036 23.6429 8.76789V8.76789" stroke="#31313B"/>
<path d="M7.4002 12.325C7.4002 12.9325 6.90771 13.425 6.3002 13.425C5.69268 13.425 5.2002 12.9325 5.2002 12.325" stroke="#31313B"/>
<path d="M11.8001 12.325C11.8001 12.9325 11.3076 13.425 10.7001 13.425C10.0926 13.425 9.6001 12.9325 9.6001 12.325" stroke="#31313B"/>
</svg>
