<svg viewBox="0 0 28 29" fill="none" xmlns="http://www.w3.org/2000/svg">
<path d="M8.73436 20.6532C8.7144 20.6547 8.69474 20.6573 8.67509 20.6599C8.64489 20.6639 8.6147 20.6679 8.58346 20.6679C6.97539 20.6679 5.66681 19.3593 5.66681 17.7513C5.66681 17.5747 5.6929 17.3927 5.73169 17.2066C6.22736 17.5176 7.52184 18.6424 8.73436 20.6532Z" fill="#FA6705"/>
<path fill-rule="evenodd" clip-rule="evenodd" d="M5.73169 17.2066C6.22736 17.5176 7.52184 18.6424 8.73436 20.6532C8.7144 20.6547 8.69474 20.6573 8.67509 20.6599C8.64489 20.6639 8.6147 20.6679 8.58346 20.6679C6.97539 20.6679 5.66681 19.3593 5.66681 17.7513C5.66681 17.5747 5.6929 17.3927 5.73169 17.2066Z" fill="#FA6705"/>
<path d="M17.3749 16.9734L17.8054 17.5474C18.0386 17.8579 18.1667 18.2428 18.1667 18.631C18.1667 19.0302 18.0204 19.4057 17.7847 19.7161L18.419 20.6679H21.5L21.5 23.1679H18.419C17.5812 23.1679 16.8036 22.7517 16.3389 22.0546L15.6559 21.0301C15.5244 21.0587 15.3918 21.0846 15.2562 21.0846C14.5929 21.0846 13.9688 20.7314 13.6277 20.1625L13.1699 19.3995L17.3749 16.9734Z" fill="#FA6705"/>
<path d="M17.3749 16.9734L19.7581 15.5984C20.3184 15.2753 20.6667 14.6723 20.6667 14.0249C20.6667 13.6501 20.5532 13.2901 20.3383 12.9828L18.1492 9.85623C17.7752 9.3214 17.139 9.00718 16.5001 9.00011C16.1576 8.99632 15.8143 9.0905 15.5101 9.2646L4.21014 15.7216C4.07666 15.7977 3.99612 15.9414 4.00014 16.0948C4.00464 16.2486 4.09291 16.3873 4.23045 16.4561L5.73169 17.2066M17.3749 16.9734L17.8054 17.5474C18.0386 17.8579 18.1667 18.2428 18.1667 18.631C18.1667 19.0302 18.0204 19.4057 17.7847 19.7161L18.419 20.6679H21.5M17.3749 16.9734L13.1699 19.3995M21.5 20.6679V19.4167C21.5 19.1864 21.6864 19 21.9167 19H23.5833C23.8136 19 24 19.1864 24 19.4167V23.5833C24 23.8136 23.8136 24 23.5833 24H21.9167C21.6863 24 21.5 23.8136 21.5 23.5833V23.1679M21.5 20.6679L21.5 23.1679M21.5 23.1679H18.419C17.5812 23.1679 16.8036 22.7517 16.3389 22.0546L15.6559 21.0301C15.5244 21.0587 15.3918 21.0846 15.2562 21.0846C14.5929 21.0846 13.9688 20.7314 13.6277 20.1625L13.1699 19.3995M13.1699 19.3995L9.62388 21.4455C9.56001 21.4825 9.48798 21.5012 9.41556 21.5012C9.37529 21.5012 9.33498 21.4955 9.29552 21.4837C9.18564 21.4504 9.09412 21.3735 9.04283 21.2709L8.73436 20.6532M8.73436 20.6532C7.52184 18.6424 6.22736 17.5176 5.73169 17.2066M8.73436 20.6532C8.7144 20.6547 8.69474 20.6573 8.67509 20.6599C8.64489 20.6639 8.6147 20.6679 8.58346 20.6679C6.97539 20.6679 5.66681 19.3593 5.66681 17.7513C5.66681 17.5747 5.6929 17.3927 5.73169 17.2066M8.16667 15.5984L14 12.3333M10.2501 19C10.4802 19 10.6668 18.8134 10.6668 18.5833C10.6668 18.3532 10.4802 18.1667 10.2501 18.1667C10.02 18.1667 9.83345 18.3532 9.83345 18.5833C9.83345 18.8134 10.02 19 10.2501 19Z" stroke="#31313B"/>
<path d="M2.56004 13C2.19183 11.3685 2 9.68207 2 7.96774C5.81291 7.96774 9.44023 6.29526 11.951 3.37945L14 1L16.049 3.37945C18.5598 6.29526 22.1871 7.96774 26 7.96774C26 10.943 25.4222 13.8342 24.3474 16.5M8.5 23.8983C9.87173 25.2903 11.4346 26.5104 13.1631 27.5141L14 28L14.8369 27.5141C15.9641 26.8596 17.0208 26.1131 18 25.2868" stroke="#31313B"/>
</svg>
