<svg viewBox="0 0 28 28" fill="none" xmlns="http://www.w3.org/2000/svg">
<rect x="3" y="4" width="4" height="8" rx="1" fill="#FA6705" stroke="#31313B"/>
<rect x="21" y="4" width="4" height="8" rx="1" fill="#FA6705" stroke="#31313B"/>
<path d="M9 26V3C9 2.44772 8.55228 2 8 2H7V26M9 26H7M9 26H11M7 26H5" stroke="#31313B"/>
<path d="M21 26H19H16.5M21 26H23M21 26V20V2H20C19.4477 2 19 2.44772 19 3V18" stroke="#31313B"/>
<path d="M1 8H2.5M27 8H25.5M9.5 8H19" stroke="#31313B"/>
<circle cx="16.5" cy="21.5" r="4.5" stroke="#31313B"/>
<circle r="1.5" transform="matrix(-1 0 0 1 16.5 21.5)" stroke="#31313B"/>
<path d="M21 20H23C23.5523 20 24 20.4477 24 21V21C24 21.5523 23.5523 22 23 22H21V20Z" stroke="#31313B"/>
<path d="M21 22H24C24.5523 22 25 22.4477 25 23V23C25 23.5523 24.5523 24 24 24H21V22Z" stroke="#31313B"/>
<path d="M21 24H25C25.5523 24 26 24.4477 26 25V25C26 25.5523 25.5523 26 25 26H21V24Z" stroke="#31313B"/>
</svg>
