<svg viewBox="0 0 28 28" fill="none" xmlns="http://www.w3.org/2000/svg">
<path d="M7 2L9 7H19L21 2H7Z" fill="#FA6705"/>
<path fill-rule="evenodd" clip-rule="evenodd" d="M21 2H7L9 7H19L21 2Z" fill="#FA6705"/>
<path d="M7 2V16H21V2M7 2L9 7H19L21 2M7 2H21M7 2L2 7M21 2L26 7" stroke="#31313B"/>
<path d="M9 14L10 13H18L19 14" stroke="#31313B"/>
<rect x="1" y="18" width="26" height="8" rx="4" stroke="#31313B"/>
<circle cx="5" cy="22" r="2" fill="#FA6705" stroke="#31313B"/>
<circle cx="11" cy="22" r="2" stroke="#31313B"/>
<circle cx="17" cy="22" r="2" stroke="#31313B"/>
<circle cx="23" cy="22" r="2" fill="#FA6705" stroke="#31313B"/>
</svg>
