<svg viewBox="0 0 28 29" fill="none" xmlns="http://www.w3.org/2000/svg">
<path d="M14.3485 8.30167L15.8802 7.09583L15.9884 7.02124C15.713 5.23931 16.3799 3.36359 17.8968 2.16843C19.4041 0.984875 21.3609 0.77128 23.0205 1.43973L19.7718 3.99763L20.1951 6.9332L22.9495 8.03254L26.1998 5.47665C26.4576 7.24555 25.7917 9.09859 24.2839 10.2857C22.7046 11.53 20.6216 11.7021 18.9127 10.9121L18.8946 10.9264L17.0506 12.3795M7.03709 14.0574L2.51054 17.6208C1.45166 18.4578 1.26943 19.9894 2.10324 21.0443C2.52233 21.5724 3.11104 21.8848 3.73087 21.9586C4.3507 22.0323 4.99717 21.8669 5.52579 21.4515L10.3928 17.6198M3.87526 20.4455C4.3837 20.506 4.84709 20.1411 4.9078 19.6309C4.96872 19.1189 4.60365 18.6573 4.09521 18.5968C3.58317 18.5359 3.1209 18.899 3.05998 19.4111C2.99838 19.9212 3.36233 20.3845 3.87526 20.4455Z" stroke="black"/>
<path d="M16.9625 13.0062C17.0998 12.4143 16.9607 11.7922 16.5844 11.3152L14.5634 8.75363C13.8792 7.88646 12.6216 7.73812 11.7544 8.4223L11.4452 8.66627L9.56585 10.1491L7.68649 11.6318L7.60396 11.697C6.7973 12.3334 6.60414 13.4775 7.15716 14.3435L8.42859 16.3345C8.65242 16.685 8.97993 16.957 9.36557 17.1127L12.3521 18.3182L16.4867 15.0561L16.9625 13.0062Z" fill="#FA6705"/>
<path d="M16.4867 15.0561L16.9625 13.0062C17.0998 12.4143 16.9607 11.7922 16.5844 11.3152L14.5634 8.75363C13.8792 7.88646 12.6216 7.73812 11.7544 8.4223L11.4452 8.66627M16.4867 15.0561L12.3521 18.3182M16.4867 15.0561L17.9695 16.9355M12.3521 18.3182L9.36557 17.1127C8.97993 16.957 8.65242 16.685 8.42859 16.3345L7.15716 14.3435C6.60414 13.4775 6.7973 12.3334 7.60396 11.697L7.68649 11.6318M12.3521 18.3182L15.3177 22.0769M7.68649 11.6318L9.16927 13.5112M7.68649 11.6318L9.56585 10.1491M9.56585 10.1491L11.0486 12.0284M9.56585 10.1491L11.4452 8.66627M11.4452 8.66627L12.928 10.5456M15.3177 22.0769L19.4522 18.8148M15.3177 22.0769L19.766 27.715M19.4522 18.8148L17.9695 16.9355M19.4522 18.8148L22.1213 22.1977M17.9695 16.9355L16.0901 18.4182" stroke="black"/>
</svg>
