<svg viewBox="0 0 28 28" fill="none" xmlns="http://www.w3.org/2000/svg">
<path d="M1 24H27" stroke="#31313B"/>
<ellipse cx="7.42362" cy="18.5272" rx="2.44706" ry="2.47273" stroke="#31313B"/>
<ellipse cx="21.4944" cy="18.5272" rx="2.44706" ry="2.47273" stroke="#31313B"/>
<path d="M19.1054 4C15.3826 4 13.1483 7.09091 12.4346 8.63637H26.0821C25.2664 7.09091 23.1762 4 19.1054 4Z" fill="#FA6705"/>
<path d="M25.7762 10.4909H26.9998V8.63637H26.0821M25.7762 10.4909V17.2909M25.7762 10.4909H23.1762M12.4346 8.63637V5.54546H4.00003L1.30566 11.1091V17.2909M12.4346 8.63637V10.4909M12.4346 8.63637C13.1483 7.09091 15.3826 4 19.1054 4C23.1762 4 25.2664 7.09091 26.0821 8.63637M12.4346 8.63637H26.0821M8.09364 11.1091H9.98751V7.4H8.09364M8.09364 11.1091H3.2581L4.97625 7.4H8.09364M8.09364 11.1091V7.4M9.98751 13.5818H8.76398M1.30566 17.2909V19H4.97625M1.30566 17.2909H5.43507M25.7762 17.2909V19H23.9409M25.7762 17.2909H23.6351M12.4346 10.4909V17.2909M12.4346 10.4909H16.7527M12.4346 17.2909H16.7527M12.4346 17.2909H9.56448M19.9645 10.4909V16.6727M19.9645 10.4909H23.1762M19.9645 10.4909H16.7527M23.1762 10.4909V16.6727M16.7527 10.4909V17.2909M16.7527 17.2909H19.3527M9.87036 19H19.0468" stroke="#31313B"/>
</svg>
