<svg viewBox="0 0 28 28" fill="none" xmlns="http://www.w3.org/2000/svg">
<path d="M7 5C6.44772 5 6 5.44772 6 6V12H14L10.2879 5.50386C10.1099 5.19229 9.77853 5 9.41968 5H7Z" fill="#FA6705"/>
<path d="M15 18H16C16.5523 18 17 17.5523 17 17V12L12.5715 4.02871C12.2188 3.39378 11.5495 3 10.8232 3H5C4.44772 3 4 3.44772 4 4V10H2C1.44772 10 1 10.4477 1 11V17C1 17.5523 1.44772 18 2 18H3M11 18H7M6 12V6C6 5.44772 6.44772 5 7 5H9.41968C9.77853 5 10.1099 5.19229 10.2879 5.50386L14 12H6Z" stroke="#31313B"/>
<path d="M3 12V14" stroke="#31313B"/>
<path d="M17 15H19M19 15V3M19 15V18H28" stroke="#31313B"/>
<path d="M8 8V11H10.5" stroke="#31313B"/>
<circle cx="5" cy="18" r="2" stroke="#31313B"/>
<circle cx="13" cy="18" r="2" stroke="#31313B"/>
<path d="M21 11H27M21 11V16M21 11L27 16M27 11V16M27 11L21 16M27 16H21" stroke="#31313B"/>
<path d="M21 4H27M21 4V9M21 4L27 9M27 4V9M27 4L21 9M27 9H21" stroke="#31313B"/>
<path d="M9 14H11" stroke="#31313B"/>
<path d="M2 25H26" stroke="#31313B"/>
</svg>
