<svg viewBox="0 0 28 28" fill="none" xmlns="http://www.w3.org/2000/svg">
<path d="M18.7635 14.9185C18.1478 14.3027 17.184 14.251 16.5075 14.761L14.7555 16.513C14.2511 17.1885 14.3043 18.1498 14.9175 18.763L21.2656 25.1111C21.9398 25.7853 23.0326 25.7853 23.7068 25.1111L25.1108 23.7071C25.7851 23.0336 25.7851 21.9408 25.1108 21.2658L18.7635 14.9185Z" fill="#FA6705"/>
<path fill-rule="evenodd" clip-rule="evenodd" d="M16.5075 14.761C17.184 14.251 18.1478 14.3027 18.7635 14.9185L25.1108 21.2658C25.7851 21.9408 25.7851 23.0336 25.1108 23.7071L23.7068 25.1111C23.0326 25.7853 21.9398 25.7853 21.2656 25.1111L14.9175 18.763C14.3043 18.1498 14.2511 17.1885 14.7555 16.513L16.5075 14.761Z" fill="#FA6705"/>
<path d="M16.5075 14.761C17.184 14.251 18.1478 14.3027 18.7635 14.9185L25.1108 21.2658C25.7851 21.9408 25.7851 23.0336 25.1108 23.7071L23.7068 25.1111C23.0326 25.7853 21.9398 25.7853 21.2656 25.1111L14.9175 18.763C14.3043 18.1498 14.2511 17.1885 14.7555 16.513M16.5075 14.761L9.94945 8.20293L9.05469 4.88564C9.01269 4.73039 8.86194 4.54214 8.71944 4.46639L4.86065 2.42337C4.7189 2.34762 4.5089 2.37912 4.39564 2.49312L2.49288 4.39589C2.37887 4.50989 2.34737 4.71914 2.42313 4.86164L4.46615 8.71968C4.5419 8.86218 4.73015 9.01293 4.8854 9.05419L8.20268 9.94969L14.76 16.507C14.7585 16.509 14.757 16.511 14.7555 16.513M16.5075 14.761L14.7555 16.513M17.692 16.7693V18.6154M19.9997 19.077V20.9231" stroke="#31313B"/>
<path d="M13.4546 11.464L15.4596 9.459L17.7485 7.17007C17.4177 5.79831 17.783 4.29379 18.8533 3.22353C19.9198 2.15627 21.4175 1.78952 22.7855 2.11427L20.5168 4.38304L21.1715 6.82807L23.6173 7.48357L25.8861 5.2148C26.2108 6.58206 25.8441 8.07983 24.7776 9.14709C23.7073 10.2174 22.202 10.5819 20.831 10.2519L18.5417 12.5412L16.5374 14.5468" stroke="#31313B"/>
<path d="M11.4629 13.4546L9.71291 15.2045L7.16933 17.7481C5.79832 17.4174 4.29305 17.7826 3.22279 18.8529C2.15628 19.9201 1.78953 21.4179 2.11428 22.7852L4.38305 20.5164L6.82883 21.1719L7.48358 23.6169L5.21481 25.8857C6.58282 26.2105 8.08059 25.8437 9.1471 24.7764C10.2174 23.7062 10.5826 22.2017 10.2519 20.8299L12.7948 18.2864L14.5455 16.5357" stroke="#31313B"/>
</svg>
