<svg width="54" height="41" viewBox="0 0 54 41" fill="none" xmlns="http://www.w3.org/2000/svg">
<path d="M23.6172 16.1407C23.9718 16.5549 24.4825 16.9178 24.685 17.4327C25.0735 17.2497 25.3062 16.916 25.589 16.6004C26.0927 16.0385 26.6084 15.4889 27.1104 14.9256C28.4928 13.3743 30.0005 11.892 31.5128 10.469C36.351 5.91637 39.4983 3.85848 45.8217 1.64133C47.7274 0.973126 49.6097 0.534173 51.599 0.20918C52.0704 0.132178 52.5506 0.113517 53.0246 0.05473C53.3504 0.0143313 53.6904 -0.0548814 54 0.0763007C52.7746 0.258368 51.5814 0.811137 50.4736 1.34451C48.9723 2.06735 47.5331 2.86446 46.1218 3.7567C40.5822 7.25904 38.0578 9.2898 33.5258 14.0195C32.0769 15.5316 30.6519 17.0754 29.1868 18.5692C28.8007 18.9629 28.4446 19.3837 28.0625 19.7815C27.9093 19.9409 27.6716 20.1415 27.6532 20.3806C27.6329 20.6436 27.9826 20.8985 28.1367 21.0725C28.6313 21.6311 29.1256 22.1872 29.6303 22.7364C30.9694 24.1933 32.307 25.6558 33.6264 27.1308C34.2246 27.7996 34.9207 28.423 35.4143 29.1765C34.0625 29.1765 32.7173 29.2518 31.3627 29.2523C30.9337 29.2524 30.2533 29.4738 29.8835 29.2066C29.4691 28.9071 29.1572 28.4124 28.809 28.04C27.8381 27.0017 26.9242 25.909 25.967 24.8578C25.6683 24.5299 25.3752 24.1985 25.0729 23.8736C24.9526 23.7443 24.8115 23.5287 24.607 23.5855C24.1596 23.7096 23.7274 24.4593 23.4094 24.7821C22.3615 25.8458 21.3842 26.9787 20.3332 28.04C18.7328 29.6563 17.2433 31.3812 15.6063 32.9619C12.7754 35.6953 9.49757 38.1784 5.85237 39.678C4.46408 40.2492 3.06192 40.6453 1.57564 40.8544C1.1138 40.9194 0.43694 41.1051 0 40.9203C0.583676 40.7591 1.10709 40.4461 1.65067 40.1852C3.2743 39.4059 4.80561 38.3617 6.22752 37.2571C10.4261 33.9954 13.9017 29.9775 17.4033 25.9943C18.5983 24.6349 19.8003 23.2787 20.9767 21.9029L21.7709 20.9938C21.897 20.8469 22.0922 20.6801 22.0562 20.4634C22.0029 20.1427 21.5954 19.8483 21.3848 19.63C20.8167 19.0409 20.3025 18.4009 19.7341 17.8116C18.6961 16.7352 17.7389 15.5774 16.725 14.4778C15.8541 13.5333 14.8111 12.5998 14.1057 11.5229H17.6321C18.1227 11.5229 18.819 11.396 19.2828 11.5686C19.8472 11.7788 20.3005 12.5356 20.7055 12.9622C21.6922 14.002 22.6854 15.0523 23.6172 16.1407Z" fill="#FA6705"/>
</svg>
